<?xml version="1.0" encoding="UTF-8"?>
<svg width="426px" height="361px" viewBox="0 0 426 361" version="1.1" xmlns="http://www.w3.org/2000/svg" xmlns:xlink="http://www.w3.org/1999/xlink">
    <!-- Generator: Sketch 63.1 (92452) - https://sketch.com -->
    <title>Group</title>
    <desc>Created with Sketch.</desc>
    <g id="Page-1" stroke="none" stroke-width="1" fill="none" fill-rule="evenodd">
        <g id="3507497" transform="translate(-31.000000, -62.000000)">
            <g id="Group" transform="translate(31.653872, 62.632153)">
                <path d="M142.515128,139.830847 C142.515128,139.830847 154.003128,170.781847 157.326128,189.960847 C160.649128,209.138847 135.110128,237.241847 135.110128,237.241847 L126.280128,213.031847 C126.280128,213.031847 138.813128,197.081847 138.813128,191.954847 C138.813128,186.827847 129.128128,146.381847 129.128128,146.381847 L142.515128,139.830847" id="Fill-5" fill="#EFA564"></path>
                <path d="M58.2061279,222.146847 L57.6361279,227.557847 C57.6361279,227.557847 54.2181279,232.969847 53.0791279,264.015847 C51.9401279,295.062847 54.7881279,326.393847 54.7881279,326.393847 L147.357128,326.393847 L131.407128,221.291847 C131.407128,221.291847 78.7141279,214.455847 58.2061279,222.146847" id="Fill-6" fill="#5C3D21"></path>
                <path d="M78.4291279,248.777847 C75.7231279,242.653847 49.3761279,235.058847 49.3761279,235.058847 C49.3761279,235.058847 37.1291279,215.120847 23.7421279,201.733847 L41.5911279,166.984847 L19.7541279,149.134847 C19.7541279,149.134847 2.47512788,186.732847 0.196127879,196.226847 C-2.08287212,205.720847 15.9561279,228.886847 30.5781279,240.659847 C45.1991279,252.432847 52.2251279,256.990847 52.2251279,256.990847 C52.2251279,256.990847 52.8891279,258.224847 61.9091279,263.446847 C61.9091279,263.446847 64.6151279,269.427847 66.1101279,269.357474 C67.5891279,269.285847 66.3491279,263.924847 63.6361279,258.985847 C63.6431279,258.966847 63.6501279,258.948847 63.6571279,258.929847 C64.1861279,259.469847 66.5471279,261.857847 67.1781279,262.235847 C67.8901279,262.662847 68.4601279,266.508847 69.9551279,266.935847 C71.4511279,267.362847 71.9491279,266.223847 71.0231279,261.309847 C70.0981279,256.396847 65.6121279,253.263847 65.6121279,253.263847 C65.6121279,253.263847 71.3081279,256.681847 72.0911279,257.820847 C72.0911279,257.820847 73.3731279,262.805847 75.0111279,262.947847 C76.6491279,263.090847 76.2211279,255.827847 74.7261279,253.263847 C73.2311279,250.700847 68.8871279,247.994847 68.8871279,247.994847 C68.8871279,247.994847 73.7291279,250.344847 74.8691279,250.628847 C74.8691279,250.628847 76.5781279,255.827847 77.7881279,256.040847 C78.9991279,256.254847 80.0621279,252.474847 78.4291279,248.777847" id="Fill-7" fill="#EFA564"></path>
                <path d="M78.4291279,95.2078467 C78.4291279,95.2078467 49.1861279,104.891847 42.5411279,112.487847 C35.8941279,120.082847 32.4771279,124.070847 16.7161279,149.324847 C16.7161279,149.324847 33.9961279,164.515847 45.1991279,168.693847 L52.0351279,160.148847 C52.0351279,160.148847 53.9341279,177.143847 53.3641279,190.814847 C52.7941279,204.486847 51.0851279,216.734847 56.7821279,221.006847 C62.4781279,225.279847 86.4041279,231.545847 105.488128,226.418847 C124.571128,221.291847 129.413128,224.994847 135.679128,219.012847 C141.946128,213.031847 132.831128,148.945847 132.831128,148.945847 C132.831128,148.945847 141.376128,146.951847 145.364128,135.558847 C145.364128,135.558847 133.401128,108.784847 125.710128,102.233847 C118.020128,95.6828467 107.197128,93.3088467 78.4291279,95.2078467" id="Fill-8" fill="#1E141B"></path>
                <path d="M118.090128,42.8158467 C118.575128,54.6108467 117.767128,64.4668467 117.928128,66.7288467 C118.090128,68.9908467 114.535128,89.0268467 99.8321279,89.3498467 C99.8321279,89.3498467 100.317128,98.2358467 103.063128,100.821847 C103.063128,100.821847 102.740128,105.830847 91.4301279,105.506847 C80.1191279,105.183847 78.1801279,99.3678467 78.1801279,99.3678467 C78.1801279,99.3678467 78.6651279,75.6158467 74.4641279,66.8908467 C74.4641279,66.8908467 68.9711279,66.2438467 67.6781279,59.6198467 C66.3851279,52.9948467 70.2631279,49.1168467 73.3331279,48.7938467 C73.3331279,48.7938467 68.1621279,34.6018467 83.6741279,28.7578467 C95.0441279,24.4748467 117.605128,31.0198467 118.090128,42.8158467" id="Fill-9" fill="#EFA564"></path>
                <path d="M89.7751279,51.5848467 C89.7751279,51.5848467 92.2981279,49.3108467 94.9071279,49.2918467 C97.5151279,49.2718467 98.3261279,50.4698467 98.9881279,49.8278467 C99.6501279,49.1858467 99.4511279,46.6338467 94.9471279,46.6248309 C90.4421279,46.6158467 88.3691279,50.4378467 89.7751279,51.5848467" id="Fill-10" fill="#262217"></path>
                <path d="M116.348128,50.0218467 C116.348128,50.0218467 113.926128,48.3518467 111.929128,48.7878467 C109.932128,49.2228467 109.572128,50.4758467 108.927128,49.9948467 C108.282128,49.5148467 107.880128,47.1128467 111.319128,46.3208467 C114.759128,45.5288467 117.172128,48.7128467 116.348128,50.0218467" id="Fill-11" fill="#262217"></path>
                <path d="M112.384128,56.5698467 C112.478128,57.9828467 112.037128,59.1618467 111.400128,59.2048467 C110.763128,59.2468467 110.171128,58.1368467 110.076128,56.7238467 C109.982128,55.3108467 110.423128,54.1318467 111.060128,54.0888467 C111.697128,54.0468467 112.289128,55.1578467 112.384128,56.5698467" id="Fill-12" fill="#262217"></path>
                <path d="M95.5781279,56.8358467 C95.6721279,58.2478467 95.2321279,59.4278467 94.5951279,59.4698467 C93.9581279,59.5128467 93.3651279,58.4018467 93.2711279,56.9888467 C93.1771279,55.5768467 93.6171279,54.3968467 94.2541279,54.3548467 C94.8911279,54.3118467 95.4841279,55.4228467 95.5781279,56.8358467" id="Fill-13" fill="#262217"></path>
                <path d="M104.664128,57.1968467 C104.664128,57.1968467 107.817128,64.0828467 107.850128,65.8178467 C107.882128,67.5538467 104.497128,68.3548467 104.497128,68.3548467" id="Stroke-14" stroke="#C45D2D" stroke-linecap="round"></path>
                <path d="M107.897128,72.7408467 C107.897128,72.7408467 99.6171279,72.4728467 96.1711279,71.2338467 C92.7261279,69.9948467 94.4361279,73.9798467 100.327128,75.7748467 C106.219128,77.5708467 107.897128,72.7408467 107.897128,72.7408467" id="Fill-15" fill="#FFFFFE"></path>
                <path d="M118.590128,29.9818467 C117.925128,29.8868467 120.109128,28.1778467 117.450128,25.6148467 C114.792128,23.0508467 112.513128,23.7158467 112.703128,21.7218467 C112.893128,19.7278467 109.570128,16.6898467 97.6071279,18.8738467 C85.6451279,21.0578467 82.6061279,18.6838467 74.8211279,21.7218467 C68.0161279,24.3778467 65.4191279,31.0958467 66.3951279,36.1698467 C65.7881279,36.7248467 65.3471279,37.3798467 65.1371279,38.1468467 C63.5231279,44.0338467 67.6051279,54.7618467 67.6051279,54.7618467 C69.4091279,49.4448467 73.3331279,48.7938467 73.3331279,48.7938467 C73.3331279,48.7938467 78.5241279,59.1298467 80.4231279,58.8448467 C82.3221279,58.5598467 80.6131279,53.5278467 82.9861279,50.7748467 C85.3601279,48.0208467 84.8851279,36.6278467 84.8851279,36.6278467 C84.8851279,36.6278467 86.6891279,34.2548467 91.9111279,34.4438467 C97.1331279,34.6338467 102.070128,38.7168467 107.861128,38.4318467 C113.653128,38.1468467 116.026128,38.3368467 118.400128,35.2988467 C120.773128,32.2608467 119.254128,30.0768467 118.590128,29.9818467" id="Fill-16" fill="#312C20"></path>
                <path d="M99.8321279,89.3498467 C99.8321279,89.3498467 87.3301279,88.8468467 84.2681279,78.7348467 C84.2681279,78.7348467 83.6511279,87.4228467 90.2021279,90.8408467 C96.7531279,94.2578467 100.361128,93.4038467 100.361128,93.4038467 L99.8321279,89.3498467" id="Fill-17" fill="#E5732B"></path>
                <path d="M71.5901279,55.6948467 C72.1101279,57.1558467 72.6821279,58.5938467 73.3011279,60.0148467 C73.5581279,60.6028467 74.4201279,60.0948467 74.1651279,59.5098467 C73.5801279,58.1688467 73.0451279,56.8078467 72.5541279,55.4288467 C72.3401279,54.8268467 71.3741279,55.0868467 71.5901279,55.6948467" id="Fill-18" fill="#C45D2D"></path>
                <path d="M52.5601279,160.343847 C56.2811279,155.331847 60.3391279,150.664847 64.4211279,145.952847 C67.6521279,142.222847 70.4401279,137.961847 69.9171279,132.820847 C69.8531279,132.186847 68.8521279,132.180847 68.9171279,132.820847 C69.5501279,139.039847 65.2021279,143.558847 61.3871279,147.865847 C57.9801279,151.711847 54.7591279,155.713847 51.6971279,159.838847 C51.3131279,160.355847 52.1801279,160.854847 52.5601279,160.343847" id="Fill-19" fill="#443E38"></path>
                <path d="M121.540128,115.134847 C125.380128,118.973847 126.249128,125.626847 127.621128,130.674847 C129.159128,136.335847 130.586128,142.025847 131.919128,147.738847 C132.066128,148.364847 133.030128,148.099847 132.884128,147.472847 C131.407128,141.142847 129.812128,134.840847 128.083128,128.574847 C126.769128,123.813847 125.881128,118.060847 122.247128,114.427847 C121.792128,113.971847 121.084128,114.678847 121.540128,115.134847" id="Fill-20" fill="#443E38"></path>
                <path d="M72.9841279,101.311847 C74.2681279,105.198847 78.3911279,107.228847 81.9171279,108.723847 C86.8921279,110.833847 92.4201279,111.861847 97.8231279,111.468847 C101.858128,111.175847 106.236128,109.732847 108.125128,105.835847 C109.648128,102.692847 108.563128,98.8108467 105.304128,97.3408467 C104.722128,97.0788467 104.213128,97.9398467 104.800128,98.2048467 C109.649128,100.391847 107.898128,106.347847 104.196128,108.666847 C101.092128,110.611847 97.0541279,110.697847 93.5111279,110.471847 C89.9091279,110.242847 86.3471279,109.428847 82.9941279,108.094847 C79.6031279,106.744847 75.1811279,104.776847 73.9481279,101.045847 C73.7471279,100.437847 72.7811279,100.697847 72.9841279,101.311847" id="Fill-21" fill="#443E38"></path>
                <path d="M66.1131279,213.601847 C68.8241279,215.569847 71.6221279,217.400847 74.5111279,219.096847 C75.0671279,219.423847 75.5701279,218.559847 75.0151279,218.233847 C72.1271279,216.537847 69.3281279,214.705847 66.6181279,212.737847 C66.0961279,212.359847 65.5971279,213.226847 66.1131279,213.601847" id="Fill-22" fill="#443E38"></path>
                <path d="M270.403128,229.836847 C270.403128,229.836847 263.852128,239.520847 262.143128,256.610847 C260.434128,273.700847 265.277128,324.969847 265.277128,324.969847 L377.499128,324.969847 C377.499128,324.969847 370.948128,278.826847 371.233128,271.421847 C371.518128,264.015847 369.809128,243.223847 366.960128,234.963847 L270.403128,229.836847" id="Fill-23" fill="#2A2A5D"></path>
                <path d="M276.954128,97.6758467 C276.954128,97.6758467 269.264128,99.6698467 263.852128,111.632847 C258.441128,123.595847 253.883128,152.363847 244.769128,173.155847 C235.654128,193.948847 235.939128,233.539847 255.592128,240.659847 C255.592128,240.659847 260.434128,245.786847 264.422128,246.071847 C264.422128,246.071847 268.694128,233.539847 272.112128,231.545847 L276.954128,97.6758467" id="Fill-24" fill="#00A282"></path>
                <path d="M375.220128,106.980847 C375.220128,106.980847 398.576128,161.192847 404.558128,167.174847 C410.539128,173.155847 422.787128,210.468847 405.127128,221.861847 C387.468128,233.254847 370.663128,194.802847 372.372128,174.010847 C374.081128,153.217847 375.220128,106.980847 375.220128,106.980847" id="Fill-25" fill="#00A282"></path>
                <path d="M334.205128,75.8398467 C334.205128,75.8398467 338.572128,78.3078467 340.661128,81.9158467 C342.750128,85.5238467 367.245128,96.5368467 375.220128,106.980847 C383.196128,117.424847 386.614128,207.809847 380.727128,227.747847 C374.841128,247.685847 280.467128,240.280847 273.252128,234.203847 C266.036128,228.127847 270.403128,228.317847 268.315128,218.063847 C266.226128,207.809847 264.327128,204.391847 267.745128,183.504847 C271.163128,162.616847 275.530128,119.892847 274.581128,113.056847 C273.631128,106.220847 272.302128,97.1068467 287.873128,88.9418467 C303.444128,80.7768467 304.773128,80.0168467 304.773128,80.0168467 C304.773128,80.0168467 311.419128,71.2818467 334.205128,75.8398467" id="Fill-26" fill="#00A282"></path>
                <path d="M333.445128,81.2508467 C333.445128,81.2508467 334.775128,90.2708467 327.369128,102.518847 C319.964128,114.765847 310.090128,221.291847 314.267128,240.090847 C314.267128,240.090847 301.355128,240.849847 285.974128,237.811847 C285.974128,237.811847 288.063128,192.428847 291.860128,177.997847 C295.658128,163.566847 301.165128,125.589847 302.874128,114.006847 C304.583128,102.423847 304.203128,89.0368467 309.425128,80.7288467 C309.425128,80.7288467 315.596128,89.5108467 333.445128,81.2508467" id="Fill-27" fill="#FFED14"></path>
                <path d="M277.078128,110.227847 C273.863128,128.351847 272.821128,146.735847 271.312128,165.053847 C270.544128,174.381847 269.758128,183.802847 267.122128,192.825847 C265.022128,200.016847 261.624128,207.481847 263.621128,215.104847 C264.631128,218.957847 267.537128,221.337847 269.270128,224.766847 C270.030128,226.270847 269.989128,227.582847 269.812128,229.207847 C269.744128,229.831847 269.624128,230.421847 269.821128,231.038847 C270.155128,232.082847 270.819128,232.542847 271.878128,232.590424 C272.521128,232.617847 272.520128,231.617847 271.878128,231.589847 C271.079128,231.554847 271.038128,228.719847 271.005128,228.084847 C270.972128,227.469847 271.016128,226.877847 270.886128,226.267847 C270.614128,224.986847 269.951128,223.835847 269.214128,222.766847 C266.994128,219.545847 264.797128,217.013847 264.222128,212.970847 C263.090128,205.024847 267.090128,197.453847 268.934128,189.923847 C270.850128,182.098847 271.563128,174.041847 272.231128,166.032847 C272.939128,157.542847 273.526128,149.043847 274.271128,140.556847 C275.153128,130.490847 276.277128,120.445847 278.042128,110.492847 C278.153128,109.863847 277.190128,109.593847 277.078128,110.227847" id="Fill-28" fill="#008365"></path>
                <path d="M278.332128,99.4568467 C277.935128,100.991847 277.716128,102.547847 277.673128,104.131847 C277.655128,104.775847 278.655128,104.775847 278.673128,104.131847 C278.714128,102.635847 278.921128,101.171847 279.297128,99.7228467 C279.458128,99.0998467 278.494128,98.8338467 278.332128,99.4568467" id="Fill-29" fill="#008365"></path>
                <path d="M272.352128,225.553847 C276.419128,227.310847 280.491128,229.003847 284.906128,229.643847 C285.535128,229.734847 285.807128,228.770847 285.172128,228.678847 C280.838128,228.050847 276.853128,226.416847 272.856128,224.689847 C272.272128,224.437847 271.762128,225.298847 272.352128,225.553847" id="Fill-30" fill="#008365"></path>
                <path d="M274.936128,226.471847 C274.563128,229.013847 273.737128,232.405847 274.804128,234.842847 C275.062128,235.430847 275.924128,234.922847 275.668128,234.337847 C275.174128,233.210847 275.395128,231.834847 275.474128,230.648847 C275.561128,229.338847 275.710128,228.036847 275.900128,226.737847 C275.993128,226.107847 275.029128,225.836847 274.936128,226.471847" id="Fill-31" fill="#008365"></path>
                <path d="M277.054128,226.952847 C276.614128,229.905847 276.610128,232.806847 277.040128,235.761847 C277.133128,236.395847 278.097128,236.125847 278.005128,235.495847 C277.602128,232.733847 277.607128,229.978847 278.018128,227.217847 C278.112128,226.588847 277.149128,226.316847 277.054128,226.952847" id="Fill-32" fill="#008365"></path>
                <path d="M282.653128,229.080847 C282.367128,231.451847 282.307128,233.819847 282.472128,236.202847 C282.516128,236.840847 283.516128,236.845847 283.472128,236.202847 C283.307128,233.819847 283.367128,231.451847 283.653128,229.080847 C283.730128,228.442847 282.729128,228.448847 282.653128,229.080847" id="Fill-33" fill="#008365"></path>
                <path d="M315.789128,232.406847 C320.535128,233.030847 325.259128,233.065847 330.014128,232.510847 C330.646128,232.436847 330.653128,231.435847 330.014128,231.510847 C325.259128,232.065847 320.535128,232.030847 315.789128,231.406847 C315.153128,231.322847 315.159128,232.323847 315.789128,232.406847" id="Fill-34" fill="#008365"></path>
                <path d="M321.506128,232.688847 C321.451128,234.522847 321.396128,236.356847 321.342128,238.190847 C321.323128,238.834847 322.323128,238.833847 322.342128,238.190847 C322.396128,236.356847 322.451128,234.522847 322.506128,232.688847 C322.525128,232.045847 321.525128,232.045847 321.506128,232.688847" id="Fill-35" fill="#008365"></path>
                <path d="M324.375128,232.877847 C324.587128,234.931847 324.537128,236.963847 324.195128,239.001847 C324.089128,239.631847 325.053128,239.901847 325.159128,239.267847 C325.516128,237.140847 325.597128,235.024847 325.375128,232.877847 C325.309128,232.243847 324.308128,232.237847 324.375128,232.877847" id="Fill-36" fill="#008365"></path>
                <path d="M370.095128,106.100847 C367.254128,106.163847 364.235128,109.286847 362.147128,111.044847 C359.235128,113.497847 356.718128,116.298847 354.962128,119.696847 C354.667128,120.266847 355.529128,120.773847 355.825128,120.200847 C357.289128,117.368847 359.286128,114.955847 361.637128,112.813847 C362.802128,111.752847 364.036128,110.766847 365.297128,109.821847 C366.611128,108.837847 368.376128,107.138847 370.095128,107.100847 C370.738128,107.086847 370.740128,106.086847 370.095128,106.100847" id="Fill-37" fill="#008365"></path>
                <path d="M330.552128,183.421847 C334.855128,191.058847 342.337128,195.799847 349.915128,199.755847 C350.485128,200.052847 350.991128,199.190847 350.420128,198.891847 C342.990128,195.014847 335.637128,190.409847 331.415128,182.916847 C331.099128,182.355847 330.235128,182.859847 330.552128,183.421847" id="Fill-38" fill="#008365"></path>
                <path d="M253.768128,180.854847 C258.040128,181.702847 261.935128,183.390847 265.477128,185.925847 C266.001128,186.300847 266.501128,185.434847 265.982128,185.062847 C262.378128,182.482847 258.381128,180.753847 254.033128,179.890847 C253.405128,179.765847 253.136128,180.729847 253.768128,180.854847" id="Fill-39" fill="#008365"></path>
                <path d="M260.031128,179.770847 C262.199128,180.584847 264.200128,181.716847 266.011128,183.160847 C266.509128,183.558847 267.222128,182.855847 266.718128,182.453847 C264.766128,180.896847 262.634128,179.683847 260.296128,178.806847 C259.693128,178.580847 259.433128,179.546847 260.031128,179.770847" id="Fill-40" fill="#008365"></path>
                <path d="M256.638128,239.437847 C257.958128,234.749847 261.103128,230.973847 265.459128,228.802847 C266.035128,228.515847 265.530128,227.653847 264.955128,227.939847 C260.375128,230.220847 257.060128,234.248847 255.674128,239.171847 C255.499128,239.792847 256.464128,240.056847 256.638128,239.437847" id="Fill-41" fill="#008365"></path>
                <path d="M258.715128,236.417847 C259.851128,237.107847 260.988128,237.796847 262.126128,238.483847 C263.078128,239.059847 264.035128,239.820847 265.144128,240.033847 C265.773128,240.153847 266.042128,239.190847 265.410128,239.069847 C264.271128,238.850847 263.189128,237.957847 262.204128,237.362847 C261.208128,236.761847 260.214128,236.158847 259.219128,235.554847 C258.668128,235.219847 258.165128,236.083847 258.715128,236.417847" id="Fill-42" fill="#008365"></path>
                <path d="M263.394128,232.097847 C264.453128,232.763847 265.459128,233.497847 266.414128,234.305847 C266.902128,234.718847 267.613128,234.014847 267.121128,233.598847 C266.102128,232.735847 265.029128,231.945847 263.899128,231.233847 C263.353128,230.889847 262.851128,231.754847 263.394128,232.097847" id="Fill-43" fill="#008365"></path>
                <path d="M327.958128,107.854847 C335.033128,102.715847 341.446128,95.9098467 341.695128,86.6788467 C341.712128,86.0348467 340.712128,86.0348467 340.695128,86.6788467 C340.456128,95.5288467 334.223128,102.073847 327.454128,106.990847 C326.938128,107.365847 327.436128,108.233847 327.958128,107.854847" id="Fill-44" fill="#008365"></path>
                <path d="M301.928128,82.7308467 C299.945128,87.0818467 297.910128,91.5698467 297.670128,96.4188467 C297.440128,101.048847 299.190128,104.952847 302.006128,108.531847 C302.404128,109.036847 303.107128,108.324847 302.713128,107.824847 C299.862128,104.201847 298.285128,100.204847 298.735128,95.5348467 C299.154128,91.1938467 301.005128,87.1538467 302.791128,83.2358467 C303.056128,82.6548467 302.194128,82.1458467 301.928128,82.7308467" id="Fill-45" fill="#008365"></path>
                <path d="M386.181128,184.952847 C389.390128,180.807847 394.047128,178.311847 399.291128,178.012847 C399.931128,177.975847 399.935128,176.975847 399.291128,177.012847 C393.801128,177.325847 388.846128,179.889847 385.474128,184.245847 C385.084128,184.748847 385.787128,185.460847 386.181128,184.952847" id="Fill-46" fill="#008365"></path>
                <path d="M393.720128,175.904847 C395.259128,175.192847 396.890128,174.944847 398.572128,175.111847 C399.212128,175.175847 399.208128,174.175847 398.572128,174.111847 C396.707128,173.926847 394.914128,174.255847 393.216128,175.040847 C392.632128,175.310847 393.140128,176.172847 393.720128,175.904847" id="Fill-47" fill="#008365"></path>
                <path d="M397.634128,196.511847 C400.791128,195.513847 403.803128,194.866847 406.917128,196.396847 C409.272128,197.553847 411.401128,199.384847 412.624128,201.716847 C412.923128,202.287847 413.786128,201.782847 413.487128,201.212847 C412.081128,198.529847 409.501128,196.369847 406.714128,195.209847 C403.537128,193.888847 400.542128,194.543847 397.368128,195.546847 C396.756128,195.739847 397.018128,196.705847 397.634128,196.511847" id="Fill-48" fill="#008365"></path>
                <path d="M309.218128,86.7678467 C315.217128,90.5998467 324.140128,91.0308467 330.646128,88.0198467 C331.230128,87.7498467 330.722128,86.8878467 330.142128,87.1568467 C326.901128,88.6568467 323.419128,88.8068467 319.903128,88.7378467 C315.994128,88.6618467 313.043128,88.0248467 309.722128,85.9048467 C309.179128,85.5568467 308.676128,86.4228467 309.218128,86.7678467" id="Fill-49" fill="#B1A637"></path>
                <path d="M298.844128,151.152847 C300.493128,158.706847 306.870128,164.795847 312.156128,170.048847 C312.613128,170.503847 313.320128,169.796847 312.863128,169.341847 C307.682128,164.192847 301.422128,158.279847 299.808128,150.886847 C299.671128,150.258847 298.707128,150.523847 298.844128,151.152847" id="Fill-50" fill="#B1A637"></path>
                <path d="M289.425128,214.871847 C293.095128,223.121847 297.050128,231.569847 304.533128,237.043847 C305.053128,237.423847 305.553128,236.556847 305.038128,236.179847 C297.718128,230.825847 293.873128,222.425847 290.289128,214.366847 C290.028128,213.779847 289.166128,214.287847 289.425128,214.871847" id="Fill-51" fill="#B1A637"></path>
                <path d="M304.800128,130.783847 C305.938128,132.091847 307.212128,133.247847 308.611128,134.269847 C309.131128,134.649847 309.631128,133.782847 309.116128,133.405847 C307.787128,132.435847 306.587128,131.318847 305.507128,130.076847 C305.084128,129.589847 304.380128,130.299847 304.800128,130.783847" id="Fill-52" fill="#B1A637"></path>
                <path d="M297.008128,241.805847 C297.804128,248.693847 298.381128,255.649847 299.444128,262.502847 C300.214128,267.471847 302.250128,272.550847 307.382128,274.280847 C307.99315,274.486847 308.256128,273.520847 307.648128,273.315847 C301.550128,271.260847 300.614128,264.335847 299.974128,258.817847 C299.316128,253.146847 298.663128,247.475847 298.008128,241.805847 C297.935128,241.173847 296.934128,241.166847 297.008128,241.805847" id="Fill-53" fill="#E4E2C9"></path>
                <path d="M308.445128,243.887847 C308.188128,252.493847 308.070128,261.102847 308.094128,269.712847 C308.096128,270.355847 309.096128,270.356847 309.094128,269.712847 C309.070128,261.102847 309.188128,252.493847 309.445128,243.887847 C309.465128,243.244847 308.465128,243.244847 308.445128,243.887847" id="Fill-54" fill="#E4E2C9"></path>
                <path d="M292.398128,269.738847 C295.787128,273.352847 300.020128,275.841847 304.826128,277.047847 C305.450128,277.204847 305.716128,276.239847 305.092128,276.083847 C300.440128,274.915847 296.385128,272.529847 293.106128,269.031847 C292.664128,268.561847 291.958128,269.269847 292.398128,269.738847" id="Fill-55" fill="#E4E2C9"></path>
                <path d="M287.189128,264.865847 C287.543128,265.624847 288.085128,266.233847 288.772128,266.707847 C289.303128,267.073847 289.804128,266.207847 289.277128,265.843847 C288.728128,265.464847 288.333128,264.962847 288.053128,264.360847 C287.781128,263.777847 286.919128,264.284847 287.189128,264.865847" id="Fill-56" fill="#E4E2C9"></path>
                <path d="M342.859128,91.7228467 C346.248128,94.0848467 349.638128,96.4458467 353.028128,98.8078467 C356.502128,101.227847 360.283128,103.484847 363.312128,106.460847 C363.771128,106.912847 364.479128,106.205847 364.019128,105.753847 C361.140128,102.923847 357.614128,100.787847 354.315128,98.4898467 C350.664128,95.9458467 347.014128,93.4028467 343.363128,90.8598467 C342.834128,90.4908467 342.334128,91.3578467 342.859128,91.7228467" id="Fill-57" fill="#E4E2C9"></path>
                <path d="M346.427128,89.2398467 C347.526128,90.5228467 348.987128,91.3048467 350.395128,92.2098467 C352.408128,93.5038467 354.402128,94.8268467 356.376128,96.1778467 C360.195128,98.7908467 363.933128,101.515847 367.605128,104.330847 C368.115128,104.721847 368.614128,103.853847 368.110128,103.466847 C364.691128,100.846847 361.215128,98.3028467 357.670128,95.8568467 C355.963128,94.6788467 354.242128,93.5218467 352.506128,92.3878467 C350.709128,91.2128467 348.538128,90.1718467 347.135128,88.5328467 C346.715128,88.0428467 346.011128,88.7528467 346.427128,89.2398467" id="Fill-58" fill="#E4E2C9"></path>
                <path d="M281.948128,98.6558467 C283.642128,95.7388467 286.962128,94.5008467 289.764128,92.9028467 C292.699128,91.2308467 295.505128,89.3588467 298.210128,87.3358467 C298.719128,86.9548467 298.221128,86.0858467 297.705128,86.4718467 C294.529128,88.8488467 291.209128,91.0028467 287.721128,92.8938467 C285.159128,94.2828467 282.596128,95.5488467 281.084128,98.1518467 C280.760128,98.7088467 281.624128,99.2128467 281.948128,98.6558467" id="Fill-59" fill="#E4E2C9"></path>
                <path d="M274.785128,102.950847 C270.242128,105.177847 267.761128,109.562847 266.002128,114.125847 C263.504128,120.608847 261.633128,127.385847 259.528128,134.004847 C257.384128,140.745847 255.621128,147.539847 253.922128,154.402847 C252.303128,160.940847 250.359128,167.404847 246.579128,173.053847 C246.220128,173.589847 247.086128,174.091847 247.442128,173.558847 C254.441128,163.100847 255.691128,149.778847 259.328128,137.979847 C261.402128,131.247847 263.561128,124.534847 265.757128,117.840847 C267.547128,112.386847 269.818128,106.496847 275.290128,103.814847 C275.868128,103.530847 275.361128,102.668847 274.785128,102.950847" id="Fill-60" fill="#E4E2C9"></path>
                <path d="M244.753128,179.896847 C240.544128,197.808847 238.230128,218.345847 250.136128,233.958847 C250.521128,234.463847 251.390128,233.966847 251.000128,233.453847 C239.247128,218.042847 241.564128,197.838847 245.717128,180.161847 C245.864128,179.536847 244.900128,179.268847 244.753128,179.896847" id="Fill-61" fill="#E4E2C9"></path>
                <path d="M367.147128,110.480847 C368.248128,111.246847 369.199128,112.195847 369.968128,113.294847 C370.334128,113.817847 371.201128,113.318847 370.831128,112.789847 C369.959128,111.542847 368.900128,110.485847 367.652128,109.616847 C367.122128,109.248847 366.622128,110.115847 367.147128,110.480847" id="Fill-62" fill="#E4E2C9"></path>
                <path d="M370.721128,109.013847 C372.487128,110.570847 373.849128,112.433847 374.802128,114.585847 C375.062128,115.172847 375.924128,114.664847 375.665128,114.080847 C374.681128,111.857847 373.251128,109.913847 371.428128,108.306847 C370.947128,107.882847 370.237128,108.587847 370.721128,109.013847" id="Fill-63" fill="#E4E2C9"></path>
                <path d="M401.209128,169.307847 C405.740128,176.051847 407.905128,183.928847 407.455128,192.041847 C407.419128,192.684847 408.419128,192.682847 408.455128,192.041847 C408.914128,183.764847 406.695128,175.683847 402.072128,168.802847 C401.715128,168.271847 400.848128,168.771847 401.209128,169.307847" id="Fill-64" fill="#E4E2C9"></path>
                <path d="M271.412128,193.532847 C273.183128,193.805847 274.418128,192.964847 275.759128,191.878847 C277.852128,190.184847 279.878128,188.397847 281.935128,186.658847 C282.427128,186.242847 281.717128,185.538847 281.228128,185.951847 C279.918128,187.059847 278.608128,188.166847 277.298128,189.273847 C275.791128,190.546847 273.867128,192.905847 271.678128,192.568847 C271.049128,192.471847 270.777128,193.435847 271.412128,193.532847" id="Fill-65" fill="#008365"></path>
                <path d="M309.900128,14.6008467 C309.900128,14.6008467 302.684128,19.6328467 302.019128,29.9818467 C301.355128,40.3308467 299.978128,47.4518467 299.314128,52.9578467 C298.649128,58.4648467 301.830128,69.7628467 309.425128,72.3268467 L309.425128,80.7288467 C309.425128,80.7288467 313.318128,86.2828467 321.103128,86.7578467 C328.888128,87.2328467 333.445128,81.2508467 333.445128,81.2508467 C333.445128,81.2508467 335.154128,68.6238467 338.288128,63.4018467 C341.421128,58.1798467 342.560128,53.7178467 342.560128,53.7178467 C342.560128,53.7178467 345.788128,53.8128467 348.162128,48.0208467 C350.535128,42.2298467 349.111128,34.0648467 344.079128,36.1528467 C344.079128,36.1528467 345.218128,26.9438467 343.984128,22.1968467 C342.750128,17.4498467 321.103128,7.29084672 309.900128,14.6008467" id="Fill-66" fill="#EFA564"></path>
                <path d="M337.243128,26.0888467 C337.243128,26.0888467 334.965128,32.9248467 336.674128,35.9638467 C338.383128,39.0018467 339.427128,38.7168467 339.617128,40.4258467 C339.807128,42.1348467 339.522128,44.9828467 340.756128,44.9828467 C341.990128,44.9828467 342.940128,36.6278467 347.402128,36.4378467 C347.402128,36.4378467 352.624128,22.4818467 342.940128,17.0698467 C342.940128,17.0698467 338.572128,10.2338467 328.603128,7.95484672 C318.634128,5.67684672 312.938128,-1.15915328 310.564128,0.169846718 C308.191128,1.49884672 309.140128,5.77184672 309.140128,5.77184672 C309.140128,5.77184672 306.292128,4.06284672 304.393128,5.86684672 C302.494128,7.67084672 304.298128,11.6578467 305.437128,12.7018467 C305.437128,12.7018467 302.589128,12.4178467 302.209128,16.0258467 C301.830128,19.6328467 310.279128,21.2468467 314.932128,20.7728467 C319.584128,20.2978467 335.819128,18.2088467 337.243128,26.0888467" id="Fill-67" fill="#19130F"></path>
                <path d="M309.425128,72.3268467 C309.425128,72.3268467 317.305128,74.5098467 324.236128,71.4718467 C331.167128,68.4338467 328.129128,73.1808467 322.147128,76.3138467 C316.166128,79.4468467 309.425128,78.1178467 309.425128,78.1178467 L309.425128,72.3268467" id="Fill-68" fill="#E5732B"></path>
                <path d="M330.112128,35.7658467 C330.112128,35.7658467 327.852128,33.2298467 325.262128,32.9238467 C322.671128,32.6188467 321.733128,33.7198467 321.146128,33.0098467 C320.559128,32.2988467 321.035128,29.7848467 325.514128,30.2688467 C329.992128,30.7538467 331.634128,34.7788467 330.112128,35.7658467" id="Fill-69" fill="#262217"></path>
                <path d="M303.869128,31.3018467 C303.869128,31.3018467 306.459128,29.9078467 308.397128,30.5588467 C310.334128,31.2108467 310.555128,32.4948467 311.249128,32.0878467 C311.942128,31.6808467 312.605128,29.3378467 309.273128,28.1738467 C305.941128,27.0098467 303.193128,29.9108467 303.869128,31.3018467" id="Fill-70" fill="#262217"></path>
                <path d="M307.093128,38.2448467 C306.845128,39.6388467 307.153128,40.8588467 307.781128,40.9708467 C308.410128,41.0828467 309.121128,40.0438467 309.369128,38.6498467 C309.617128,37.2558467 309.309128,36.0358467 308.680128,35.9238467 C308.052128,35.8118467 307.341128,36.8508467 307.093128,38.2448467" id="Fill-71" fill="#262217"></path>
                <path d="M323.768128,40.3488467 C323.520128,41.7428467 323.828128,42.9638467 324.457128,43.0758467 C325.085128,43.1878467 325.796128,42.1488467 326.044128,40.7548467 C326.293128,39.3608467 325.984128,38.1398467 325.356128,38.0278467 C324.727128,37.9158467 324.016128,38.9558467 323.768128,40.3488467" id="Fill-72" fill="#262217"></path>
                <path d="M314.697128,39.7138467 C314.697128,39.7138467 310.809128,46.2118467 310.587128,47.9338467 C310.364128,49.6558467 313.641128,50.8218467 313.641128,50.8218467" id="Stroke-73" stroke="#C45D2D" stroke-linecap="round"></path>
                <path d="M309.781128,54.8098467 C309.781128,54.8098467 318.041128,55.4508467 321.601128,54.5958467 C325.162128,53.7418467 323.026128,57.5158467 316.973128,58.6548467 C310.920128,59.7938467 309.781128,54.8098467 309.781128,54.8098467" id="Fill-74" fill="#FFFFFE"></path>
                <path d="M345.310128,42.6118467 C344.819128,43.9908467 344.284128,45.3508467 343.699128,46.6928467 C343.445128,47.2768467 344.306128,47.7858467 344.563128,47.1968467 C345.182128,45.7768467 345.754128,44.3378467 346.274128,42.8778467 C346.490128,42.2708467 345.524128,42.0088467 345.310128,42.6118467" id="Fill-75" fill="#C45D2D"></path>
                <path d="M307.462128,274.410847 C308.053128,278.741847 308.925128,283.004847 310.082128,287.219847 C310.252128,287.839847 311.217128,287.576847 311.047128,286.954847 C309.889128,282.738847 309.017128,278.475847 308.426128,274.144847 C308.340128,273.509847 307.376128,273.779847 307.462128,274.410847" id="Fill-76" fill="#E4E2C9"></path>
                <path d="M245.338128,176.788847 C245.623128,176.788847 245.908128,176.788847 246.193128,176.788847 C246.836128,176.788847 246.837128,175.788847 246.193128,175.788847 C245.908128,175.788847 245.623128,175.788847 245.338128,175.788847 C244.695128,175.788847 244.694128,176.788847 245.338128,176.788847" id="Fill-77" fill="#E4E2C9"></path>
                <path d="M353.194128,205.531847 C353.194128,205.531847 338.905128,206.765847 323.192128,255.850847 L341.990128,263.446847 L353.194128,205.531847" id="Fill-78" fill="#90562B"></path>
                <path d="M350.345128,207.809847 C354.970128,201.368847 370.767128,195.983847 381.107128,198.695847 C392.690128,201.733847 401.235128,202.113847 412.058128,223.760847 C422.882128,245.407847 424.781128,316.044847 424.781128,316.044847 L325.470128,316.424847 C325.470128,316.424847 329.078128,237.431847 350.345128,207.809847" id="Fill-79" fill="#90562B"></path>
                <path d="M358.985128,123.025847 C358.985128,123.025847 359.270128,118.183847 366.106128,116.332847 C372.942128,114.480847 376.075128,118.041847 376.075128,118.041847 C376.075128,118.041847 377.357128,114.765847 384.192128,116.474847 C391.028128,118.183847 389.889128,124.165847 389.889128,124.165847 C389.889128,124.165847 394.589128,121.601847 398.861128,126.016847 C403.134128,130.431847 399.716128,135.985847 399.716128,135.985847 C399.716128,135.985847 403.561128,135.985847 405.412128,139.403847 C407.264128,142.821847 404.985128,145.954847 403.418128,147.236847 C403.418128,147.236847 406.979128,147.236847 407.691128,153.502847 C408.403128,159.768847 402.279128,160.053847 402.279128,160.053847 C402.279128,160.053847 403.988128,162.047847 402.422128,165.749847 C400.855128,169.452847 397.010128,168.883847 397.010128,168.883847 C397.010128,168.883847 397.010128,171.873847 393.165128,172.728847 L346.595128,156.350847 C346.595128,156.350847 343.604128,150.084847 345.029128,143.390847 C345.029128,143.390847 341.468128,140.400847 343.035128,135.415847 C344.601128,130.431847 348.731128,131.000847 348.731128,131.000847 C348.731128,131.000847 349.159128,120.747847 358.985128,123.025847" id="Fill-80" fill="#262217"></path>
                <path d="M354.428128,138.548847 C354.428128,138.548847 349.016128,139.830847 347.022128,152.220847 C345.029128,164.610847 345.029128,176.146847 346.737128,182.697847 C348.446128,189.248847 353.431128,194.517847 362.118128,194.375847 L362.118128,206.765847 C362.118128,206.765847 367.103128,210.325847 376.075128,207.192847 C385.047128,204.059847 383.338128,201.211847 383.338128,201.211847 C383.338128,201.211847 383.338128,183.124847 385.474128,179.279847 C385.474128,179.279847 390.601128,180.276847 393.307128,172.158847 C396.013128,164.041847 388.465128,160.765847 388.465128,160.765847 C388.465128,160.765847 387.468128,167.743847 384.192128,168.883847 L381.914128,152.220847 C381.914128,152.220847 374.366128,151.935847 371.945128,145.384847 C371.945128,145.384847 366.960128,147.236847 364.112128,142.536847 C364.112128,142.536847 357.134128,145.669847 354.428128,138.548847" id="Fill-81" fill="#ED9C82"></path>
                <path d="M324.219128,256.255847 C324.219128,256.255847 305.865128,295.062847 305.580128,307.879847 C305.295128,320.696847 353.004128,332.517847 360.409128,333.941847 C360.409128,333.941847 372.087128,337.359847 378.353128,337.074847 C384.620128,336.789847 387.326128,344.052847 391.456128,343.625847 C395.586128,343.198847 388.180128,336.647847 387.895128,335.365847 C387.610128,334.083847 393.592128,337.074847 395.586128,340.919847 C397.579128,344.764847 399.716128,344.907847 400.997128,343.910847 C402.279128,342.913847 399.716128,337.216847 397.579128,334.938847 C397.579128,334.938847 403.561128,341.346847 405.982128,340.919847 C408.403128,340.492847 404.700128,334.226847 400.855128,331.947847 C397.010128,329.668847 397.010128,329.668847 397.010128,329.668847 C397.010128,329.668847 403.276128,329.953847 404.273128,331.092847 C405.270128,332.232847 408.403128,336.219847 410.112128,335.935847 C411.821128,335.650847 409.542128,327.532847 406.124128,325.538847 C402.706128,323.545847 396.725128,321.551847 388.322128,320.696847 C379.920128,319.842847 326.657128,305.885847 326.657128,305.885847 L332.261128,259.525847 L324.219128,256.255847" id="Fill-82" fill="#E77D62"></path>
                <path d="M362.118128,194.375847 C362.118128,194.375847 372.230128,194.660847 375.932128,188.678847 C379.635128,182.697847 377.641128,201.495847 362.261128,201.353847 L362.118128,194.375847" id="Fill-83" fill="#E77D62"></path>
                <path d="M391.100128,266.864847 L393.747128,295.729847 C393.747128,295.729847 346.363128,310.227847 334.164128,313.233847 C334.164128,313.233847 313.389128,313.012847 307.024128,315.266847 C300.659128,317.521847 291.907128,328.925847 292.570128,332.107847 C293.233128,335.290847 300.394128,327.864847 301.454128,326.273847 C302.515128,324.681847 305.698128,323.090847 305.698128,323.090847 C305.698128,323.090847 296.946128,332.770847 298.139128,338.074847 C299.333128,343.379847 305.963128,332.638847 305.963128,332.638847 L311.135128,327.068847 C311.135128,327.068847 305.565128,335.953847 306.759128,340.594847 C307.952128,345.235847 312.726128,336.881847 313.787128,334.494847 L316.969128,330.251847 C316.969128,330.251847 314.317128,337.146847 315.378128,340.461847 C316.439128,343.776847 319.887128,339.268847 320.284128,335.688847 L323.069128,332.240847 C323.069128,332.240847 333.677128,334.362847 342.164128,329.323847 C342.164128,329.323847 406.080128,322.692847 414.699128,314.073847 C423.318128,305.454847 420.081128,262.876847 420.081128,262.876847 L391.100128,266.864847" id="Fill-84" fill="#ED9C82"></path>
                <path d="M389.675128,201.923847 C383.294128,202.097847 386.803128,214.835847 385.664128,232.874847 C384.525128,250.913847 386.234128,268.003847 386.234128,268.003847 C386.234128,268.003847 412.628128,268.573847 422.312128,263.636847 C422.312128,263.636847 410.563128,201.353847 389.675128,201.923847" id="Fill-85" fill="#90562B"></path>
                <path d="M375.877128,156.851847 C375.877128,156.851847 373.388128,154.540847 370.780128,154.481847 C368.172128,154.422847 367.343128,155.607847 366.691128,154.955847 C366.039128,154.303847 366.276128,151.755847 370.780128,151.814847 C375.284128,151.873847 377.299128,155.725847 375.877128,156.851847" id="Fill-86" fill="#262217"></path>
                <path d="M349.330128,154.888847 C349.330128,154.888847 351.777128,153.254847 353.767128,153.720847 C355.757128,154.185847 356.099128,155.443847 356.751128,154.973847 C357.403128,154.502847 357.841128,152.106847 354.414128,151.262847 C350.987128,150.419847 348.525128,153.566847 349.330128,154.888847" id="Fill-87" fill="#262217"></path>
                <path d="M352.506128,161.774847 C352.391128,163.185847 352.813128,164.372847 353.450128,164.424847 C354.086128,164.476847 354.695128,163.374847 354.811128,161.963847 C354.926128,160.552847 354.504128,159.366847 353.868128,159.314847 C353.231128,159.262847 352.622128,160.363847 352.506128,161.774847" id="Fill-88" fill="#262217"></path>
                <path d="M368.813128,163.127847 C368.697128,164.538847 369.120128,165.725847 369.756128,165.777847 C370.392128,165.829847 371.002128,164.727847 371.117128,163.316847 C371.233128,161.905847 370.810128,160.719847 370.174128,160.667847 C369.538128,160.615847 368.928128,161.716847 368.813128,163.127847" id="Fill-89" fill="#262217"></path>
                <path d="M360.708128,161.050847 C360.708128,161.050847 355.723128,169.381847 355.439128,171.588847 C355.154128,173.796847 359.355128,175.291847 359.355128,175.291847" id="Stroke-90" stroke="#DF634C" stroke-linecap="round"></path>
                <path d="M355.092128,177.902847 C356.467128,177.876847 357.039128,179.706847 360.362128,179.469847 C363.685128,179.231847 366.960128,177.285847 367.862128,178.282847 C368.764128,179.279847 365.774128,183.646847 360.172128,182.744847 C354.570128,181.842847 353.616128,177.930847 355.092128,177.902847" id="Fill-91" fill="#FFFFFE"></path>
                <path d="M389.325128,168.339847 C388.954128,169.689847 388.515128,171.015847 388.008128,172.320847 C387.774128,172.920847 388.741128,173.180847 388.972128,172.586847 C389.479128,171.281847 389.918128,169.955847 390.289128,168.605847 C390.460128,167.983847 389.496128,167.718847 389.325128,168.339847" id="Fill-92" fill="#DF634C"></path>
                <path d="M306.444128,323.311847 C307.344128,322.518847 308.357128,321.872847 309.464128,321.406847 C310.048128,321.159847 309.791128,320.191847 309.198128,320.441847 C307.924128,320.979847 306.775128,321.689847 305.737128,322.604847 C305.253128,323.030847 305.962128,323.735847 306.444128,323.311847" id="Fill-93" fill="#E77D62"></path>
                <path d="M311.684128,327.262847 C312.662128,326.256847 313.740128,325.378847 314.925128,324.627847 C315.467128,324.283847 314.966128,323.418847 314.420128,323.763847 C313.165128,324.558847 312.013128,325.490847 310.977128,326.555847 C310.528128,327.016847 311.234128,327.724847 311.684128,327.262847" id="Fill-94" fill="#E77D62"></path>
                <path d="M317.616128,330.161847 C318.264128,329.035847 319.187128,328.163847 320.341128,327.569847 C320.913128,327.274847 320.408128,326.411847 319.836128,326.705847 C318.539128,327.374847 317.481128,328.392847 316.753128,329.656847 C316.431128,330.215847 317.295128,330.719847 317.616128,330.161847" id="Fill-95" fill="#E77D62"></path>
                <path d="M394.060128,296.614847 C395.740128,297.242847 397.140128,298.270847 398.501128,299.420847 C399.563128,300.319847 401.151128,301.323847 401.873128,302.523847 C402.205128,303.074847 403.070128,302.571847 402.737128,302.018847 C401.872128,300.580847 400.067128,299.415847 398.780128,298.354847 C397.416128,297.229847 395.990128,296.272847 394.326128,295.649847 C393.723128,295.423847 393.462128,296.390847 394.060128,296.614847" id="Fill-96" fill="#E77D62"></path>
                <path d="M332.969128,259.589847 C334.054128,253.614847 335.466128,247.675847 336.992128,241.799847 C338.018128,237.852847 339.121128,233.918847 340.459128,230.065847 C341.464128,227.169847 342.517128,223.888847 344.528128,221.502847 C344.940128,221.013847 344.236128,220.302847 343.820128,220.795847 C342.010128,222.944847 340.975128,225.743847 340.013128,228.347847 C338.558128,232.289847 337.400128,236.343847 336.325128,240.403847 C334.671128,246.647847 333.159128,252.966847 332.004128,259.323847 C331.890128,259.953847 332.854128,260.223847 332.969128,259.589847" id="Fill-97" fill="#663B22"></path>
                <path d="M384.340128,232.541847 C384.751128,239.347847 385.502128,246.127847 386.635128,252.852847 C387.224128,256.350847 387.914128,259.831847 388.704128,263.290847 C389.085128,264.962847 389.137128,267.444847 391.000128,268.123847 C391.605128,268.344847 391.866128,267.378847 391.266128,267.159847 C390.033128,266.709847 389.800128,263.610847 389.561128,262.552847 C389.278128,261.294847 389.007128,260.032847 388.750128,258.768847 C388.171128,255.924847 387.658128,253.067847 387.213128,250.199847 C386.304128,244.345847 385.697128,238.453847 385.340128,232.541847 C385.302128,231.901847 384.301128,231.897847 384.340128,232.541847" id="Fill-98" fill="#663B22"></path>
                <path d="M382.213128,232.497847 C382.922128,233.612847 383.573128,234.758847 384.166128,235.938847 C384.456128,236.513847 385.319128,236.007847 385.030128,235.433847 C384.436128,234.253847 383.786128,233.107847 383.077128,231.992847 C382.732128,231.451847 381.867128,231.952847 382.213128,232.497847" id="Fill-99" fill="#663B22"></path>
                <path d="M360.768128,202.803847 C358.618128,204.835847 356.635128,208.899847 359.293128,211.292847 C362.185128,213.895847 367.942128,212.785847 371.407128,212.359847 C375.771128,211.822847 380.158128,210.651847 383.849128,208.184847 C386.420128,206.466847 389.642128,203.414847 387.080128,200.313847 C386.670128,199.817847 385.966128,200.527847 386.373128,201.020847 C389.243128,204.494847 382.514128,208.008847 380.283128,209.018847 C377.488128,210.283847 374.441128,210.980847 371.407128,211.359847 C368.941128,211.666847 366.385128,211.859847 363.899128,211.755847 C361.689128,211.663847 359.382128,211.060847 359.200128,208.547847 C359.081128,206.910847 360.227128,204.690847 361.475128,203.511847 C361.944128,203.068847 361.236128,202.361847 360.768128,202.803847" id="Fill-100" fill="#663B22"></path>
                <path d="M354.528128,251.669847 C354.965128,251.164847 355.338128,250.527847 355.659128,250.102847 C356.322128,249.223847 356.870128,248.135847 357.623128,247.333847 C359.002128,245.864847 359.607128,247.315847 360.362128,248.544847 C360.966128,249.525847 361.310128,251.449847 362.062128,252.824847 C359.564128,252.290847 357.060128,251.882847 354.528128,251.669847 Z M345.108128,250.955847 C345.912128,249.904847 346.468128,248.175847 347.195128,247.761847 C350.524128,245.865847 350.519128,249.631847 351.574128,251.509847 C349.377128,251.462847 347.250128,251.436847 345.108128,250.955847 Z M347.072128,245.981847 C346.207128,246.947847 345.558128,249.175847 344.481128,249.705847 C342.689128,250.587847 342.305128,246.191847 342.152128,244.763847 C343.737128,245.368847 345.385128,245.746847 347.072128,245.981847 Z M352.289128,250.278847 C351.359128,249.269847 351.470128,247.532847 350.791128,246.311847 C352.826128,246.405847 354.886128,246.401847 356.929128,246.441847 C356.751128,246.628847 356.581128,246.818847 356.432128,247.002847 C355.431128,248.234847 354.060128,252.199847 352.289128,250.278847 Z M369.812128,248.459847 C369.210128,248.739847 368.629128,249.192847 368.196128,249.516847 C367.586128,249.972847 367.043128,250.509847 366.529128,251.068847 C365.824128,251.834847 364.464128,252.975847 363.243128,252.403847 C362.782128,252.187847 362.408128,250.487847 362.179128,249.941847 C361.760128,248.944847 361.412128,247.857847 360.914128,246.896847 C360.871128,246.812847 360.827128,246.724847 360.784128,246.638847 C363.848128,246.950847 366.836128,247.675847 369.812128,248.459847 Z M377.713128,254.934847 C376.618128,255.636847 376.117128,255.969847 374.980128,254.541847 C374.703128,254.194847 374.538128,253.544847 374.355128,253.149847 C373.864128,252.090847 373.441128,250.302847 372.577128,249.191847 C375.397128,249.934847 378.225128,250.624847 381.113128,250.965847 C380.105128,252.290847 378.946128,254.142847 377.713128,254.934847 Z M372.278128,251.382847 C372.701128,252.288847 373.182128,254.229847 373.996128,255.617847 C371.250128,255.040847 368.521128,254.339847 365.784128,253.678847 C368.094128,251.786847 370.271128,247.081847 372.278128,251.382847 Z M386.315128,256.818847 C383.514128,256.970847 380.766128,256.758847 378.046128,256.351847 C379.807128,254.993847 381.417128,252.328847 382.358128,251.220847 C382.393128,251.178847 382.408128,251.134847 382.430128,251.090847 C383.205128,251.150847 383.983128,251.192847 384.768128,251.190847 C385.501128,251.188847 385.502128,250.048847 384.768128,250.051847 C376.991128,250.074847 369.904128,246.604847 362.279128,245.634847 C361.443128,245.528847 360.592128,245.463847 359.735128,245.415847 C359.310128,245.234847 358.899128,245.243847 358.507128,245.361847 C355.544128,245.264847 352.508128,245.358847 349.552128,245.153847 C349.205128,245.014847 348.849128,244.985847 348.495128,245.069847 C344.894128,244.717847 341.448128,243.809847 338.455128,241.394847 C337.889128,240.938847 337.078128,241.739847 337.649128,242.200847 C338.717128,243.061847 339.839128,243.734847 340.997128,244.275847 C340.980128,244.339847 340.970128,244.409847 340.981128,244.491847 C341.127128,245.585847 341.272128,248.157847 341.938128,249.933847 C340.521128,249.350847 339.141128,248.663847 337.779128,247.981847 C337.125128,247.653847 336.548128,248.636847 337.204128,248.965847 C339.095128,249.912847 340.972128,250.793847 342.918128,251.457847 C343.043128,251.554847 343.174128,251.637847 343.317128,251.690847 C343.517128,251.764847 343.702128,251.780847 343.879128,251.767847 C345.327128,252.197847 346.821128,252.494847 348.395128,252.586847 C353.024128,252.854847 357.444128,252.980847 362.011128,253.972847 C366.536128,254.956847 371.009128,256.234847 375.541128,257.085847 C375.708128,257.140847 375.880128,257.178847 376.065128,257.178847 C379.432128,257.785847 382.833128,258.146847 386.315128,257.957847 C387.044128,257.917847 387.048128,256.778847 386.315128,256.818847 L386.315128,256.818847 Z" id="Fill-101" fill="#AF693C"></path>
                <path d="M384.854128,201.952847 C384.854128,201.952847 386.592128,198.728847 390.273128,197.325847 C393.954128,195.922847 396.175128,198.003847 396.175128,198.003847 C396.175128,198.003847 402.193128,197.786847 407.196128,202.034847 C412.199128,206.281847 415.622128,213.499847 415.926128,217.112847 C416.229128,220.725847 415.235128,223.884847 413.009128,225.488847 C410.784128,227.093847 408.987128,224.045847 410.975128,219.571847 C410.975128,219.571847 408.780128,225.936847 405.221128,226.010847 C401.663128,226.084847 403.440128,220.250847 405.125128,215.413847 C405.125128,215.413847 400.922128,224.307847 397.147128,223.457847 C393.372128,222.606847 397.401128,213.428847 397.858128,210.287847 C397.858128,210.287847 395.414128,217.903847 392.332128,218.624847 C389.249128,219.345847 390.142128,211.117847 391.687128,207.071847 C393.233128,203.026847 391.287128,203.047847 391.287128,203.047847 C391.287128,203.047847 389.497128,204.658847 386.384128,205.712847 C382.187128,207.132847 384.854128,201.952847 384.854128,201.952847" id="Fill-102" fill="#EFA564"></path>
                <path d="M398.434128,210.326847 C399.014128,208.131847 399.492128,205.917847 399.870128,203.678847 C399.976128,203.049847 399.012128,202.778847 398.905128,203.412847 C398.528128,205.651847 398.050128,207.866847 397.470128,210.061847 C397.306128,210.683847 398.270128,210.949847 398.434128,210.326847" id="Fill-103" fill="#C45D2D"></path>
                <path d="M405.702128,215.690847 C406.798128,213.667847 406.878128,211.233847 407.194128,208.996847 C407.282128,208.366847 406.319128,208.094847 406.229128,208.730847 C405.931128,210.849847 405.876128,213.270847 404.839128,215.185847 C404.532128,215.751847 405.395128,216.256847 405.702128,215.690847" id="Fill-104" fill="#C45D2D"></path>
                <path d="M411.226128,220.502847 C412.080128,218.322847 411.739128,215.966847 412.305128,213.726847 C412.462128,213.102847 411.498128,212.835847 411.340128,213.460847 C410.776128,215.695847 411.111128,218.068847 410.262128,220.236847 C410.028128,220.835847 410.994128,221.095847 411.226128,220.502847" id="Fill-105" fill="#C45D2D"></path>
                <path d="M162.026128,218.870847 C162.026128,218.870847 151.345128,285.377847 153.624128,326.393847 L198.057128,324.969847 L203.469128,275.124847 L211.729128,325.254847 L254.168128,324.969847 C254.168128,324.969847 252.174128,277.402847 249.326128,259.743847 C246.478128,242.084847 230.338128,213.886847 230.338128,213.886847 L162.026128,218.870847" id="Fill-106" fill="#8E7BAB"></path>
                <path d="M176.410128,42.4668467 C176.410128,42.4668467 181.110128,33.3528467 191.079128,31.6438467 C201.048128,29.9348467 208.026128,32.9248467 213.723128,37.7668467 C219.419128,42.6098467 225.116128,52.4358467 224.404128,66.9618467 C223.692128,81.4888467 225.258128,84.1948467 228.961128,90.6028467 C232.664128,97.0118467 232.948128,105.271847 232.236128,109.971847 C231.524128,114.670847 162.026128,113.673847 162.026128,113.673847 C162.026128,113.673847 161.172128,95.0178467 165.302128,83.1978467 C169.432128,71.3768467 167.153128,48.1638467 176.410128,42.4668467" id="Fill-107" fill="#202C4F"></path>
                <path d="M247.237128,159.768847 C245.149128,149.704847 247.902128,115.335847 239.262128,110.208847 C235.276128,107.842847 215.337128,104.131847 215.337128,104.131847 L208.311128,101.093847 L188.373128,101.093847 C188.373128,101.093847 182.107128,103.182847 176.600128,105.081847 C171.093128,106.980847 155.712128,110.398847 153.244128,114.385847 C150.775128,118.373847 151.345128,133.374847 147.547128,151.793847 C143.750128,170.212847 144.509128,201.163847 144.509128,201.163847 C148.117128,210.468847 160.649128,209.138847 160.649128,209.138847 L156.472128,233.824847 C156.472128,233.824847 173.475128,239.337847 189.965128,241.615847 C191.983128,230.876847 192.930128,221.481847 192.930128,221.481847 L211.729128,220.911847 C210.898128,231.230847 209.464128,238.877847 208.747128,242.270847 C226.106128,240.683847 245.149128,232.684847 245.149128,232.684847 L237.933128,216.164847 C237.933128,216.164847 249.896128,206.860847 251.415128,198.125847 C252.934128,189.390847 249.326128,169.832847 247.237128,159.768847" id="Fill-108" fill="#6D4D8E"></path>
                <path d="M212.022128,71.5258467 C212.022128,71.5258467 209.044128,75.9028467 210.892128,77.3798467 C212.740128,78.8558467 217.474128,77.7438467 217.614128,75.9428467 C217.710128,74.7058467 213.713128,68.7388467 212.022128,71.5258467" id="Fill-109" fill="#E7EDB1"></path>
                <path d="M187.898128,102.612847 C187.898128,102.612847 183.056128,111.727847 185.904128,124.449847 C188.753128,137.172847 191.411128,142.299847 193.500128,164.135847 C195.588128,185.972847 192.930128,221.481847 192.930128,221.481847 L211.729128,220.911847 C211.729128,220.911847 221.983128,128.627847 209.260128,103.657847 L187.898128,102.612847" id="Fill-110" fill="#E36587"></path>
                <path d="M195.958128,288.906847 C196.270128,290.270847 197.634128,291.111847 198.993128,290.775847 C206.410128,288.937847 229.009128,283.320847 233.281128,282.055847 C238.408128,280.535847 240.022128,280.251847 240.496128,278.542847 C240.971128,276.833847 235.939128,254.711847 235.180128,252.907847 C234.420128,251.103847 232.711128,251.388847 230.053128,252.053847 C227.394128,252.717847 195.848128,258.042847 193.879128,261.357847 C192.290128,264.034847 194.238128,281.376847 195.958128,288.906847" id="Fill-111" fill="#C1BDAA"></path>
                <path d="M181.893128,47.6178467 C181.893128,47.6178467 185.667128,53.2188467 180.255128,61.5738467 C180.255128,61.5738467 177.359128,61.2178467 176.125128,64.0668467 C174.891128,66.9148467 177.312128,74.6998467 181.679128,74.6048467 C181.679128,74.6048467 183.602128,82.7938467 190.841128,88.7518467 C190.841128,88.7518467 189.892128,98.7208467 187.898128,102.612847 C187.898128,102.612847 195.019128,114.575847 200.051128,114.860847 C205.083128,115.145847 209.260128,103.657847 209.260128,103.657847 C209.260128,103.657847 205.937128,91.3148467 206.602128,87.5178467 C206.602128,87.5178467 210.874128,82.9598467 212.773128,72.9908467 C212.773128,72.9908467 214.838128,61.4788467 211.942128,52.0328467 C211.942128,52.0328467 194.425128,56.1628467 181.893128,47.6178467" id="Fill-112" fill="#ED9C82"></path>
                <path d="M221.572128,258.706847 C221.413128,260.278847 221.322128,261.816847 221.322128,263.184847 C221.333128,264.813847 221.493128,266.203847 221.846128,267.148847 C223.259128,270.988847 223.122128,281.891847 223.122128,281.891847 C224.398128,284.739847 226.893128,282.951847 226.608128,284.170847 C226.323128,285.377847 225.685128,287.155847 223.908128,287.303847 C222.119128,287.440847 220.843128,285.229847 220.843128,285.229847 C220.843128,285.229847 219.772128,287.440847 218.496128,287.588847 C217.209128,287.724847 215.933128,286.300847 215.933128,286.300847 C215.933128,286.300847 215.933128,288.294847 213.791128,288.294847 C211.660128,288.294847 209.450128,280.968847 209.450128,280.968847 C209.450128,280.968847 209.256128,282.051847 209.256128,283.190847 C209.256128,284.329847 212.298128,290.983847 210.020128,290.413847 C207.741128,289.844847 207.171128,287.565847 206.032128,284.523847 C204.995128,281.754847 202.694128,273.779847 204.027128,262.329847 C204.152128,261.213847 204.312128,260.073847 204.517128,258.888847 C204.551128,258.683847 204.597128,258.467847 204.631128,258.250847 C207.240128,244.465847 221.037128,209.135847 221.037128,209.135847 C229.194128,202.116847 241.784128,207.334847 240.348128,211.322847 C238.936128,215.310847 224.831128,243.508847 223.555128,247.928847 C222.860128,250.321847 221.994128,254.650847 221.572128,258.706847" id="Fill-113" fill="#E9886F"></path>
                <path d="M161.409128,207.524847 C161.409128,207.524847 162.453128,195.467847 165.397128,192.713847 C168.340128,189.960847 182.961128,193.283847 191.601128,194.802847 C200.241128,196.321847 213.912128,200.688847 219.514128,200.688847 C225.116128,200.688847 232.331128,199.359847 237.363128,200.404847 C242.395128,201.448847 245.149128,205.720847 246.668128,208.854847 C248.187128,211.987847 247.617128,214.265847 246.763128,215.500847 C245.908128,216.734847 245.054128,215.120847 244.579128,212.271847 C244.104128,209.423847 242.110128,209.233847 242.110128,209.233847 C242.110128,209.233847 243.724128,211.607847 243.630128,214.550847 C243.535128,217.493847 243.535128,219.297847 242.395128,219.487847 C241.256128,219.677847 240.686128,215.974847 240.686128,214.740847 C240.686128,214.740847 241.066128,217.398847 239.832128,219.392847 C238.598128,221.386847 237.648128,217.398847 237.743128,214.930847 C237.838128,212.461847 235.939128,212.461847 235.939128,212.461847 C235.939128,212.461847 236.984128,213.980847 236.699128,216.069847 C236.414128,218.158847 235.844128,220.152847 234.990128,219.487847 C234.135128,218.823847 233.755128,217.398847 234.040128,215.784847 C234.325128,214.170847 231.287128,214.075847 230.907128,214.265847 C230.527128,214.455847 223.786128,213.886847 219.799128,212.177847 C219.799128,212.177847 211.634128,214.360847 188.468128,213.031847 C165.302128,211.702847 161.409128,207.524847 161.409128,207.524847" id="Fill-114" fill="#ED9C82"></path>
                <path d="M190.841128,88.7518467 C190.841128,88.7518467 200.146128,94.7328467 206.602128,87.5178467 C206.602128,87.5178467 206.412128,90.3178467 206.744128,91.4578467 C206.744128,91.4578467 203.516128,96.0148467 198.152128,96.7738467 C192.788128,97.5338467 189.844128,95.5398467 189.844128,95.5398467 L190.841128,88.7518467" id="Fill-115" fill="#E77D62"></path>
                <path d="M155.510128,116.379847 C159.569128,121.205847 162.032128,126.984847 163.857128,132.969847 C165.717128,139.072847 167.907128,145.791847 167.777128,152.208847 C167.764128,152.852847 168.764128,152.852847 168.777128,152.208847 C168.914128,145.425847 166.591128,138.326847 164.575128,131.906847 C162.729128,126.029847 160.207128,120.416847 156.217128,115.672847 C155.802128,115.179847 155.098128,115.890847 155.510128,116.379847" id="Fill-116" fill="#513878"></path>
                <path d="M167.713128,155.705847 C166.625128,164.812847 164.991128,174.045847 164.862128,183.228847 C164.853128,183.872847 165.853128,183.872847 165.862128,183.228847 C165.991128,174.045847 167.625128,164.812847 168.713128,155.705847 C168.789128,155.067847 167.788128,155.073847 167.713128,155.705847" id="Fill-117" fill="#513878"></path>
                <path d="M153.819128,184.909847 C157.346128,184.386847 160.874128,184.102847 164.240128,185.507847 C164.833128,185.755847 165.092128,184.787847 164.506128,184.543847 C160.979128,183.071847 157.247128,183.397847 153.553128,183.945847 C152.919128,184.039847 153.188128,185.003847 153.819128,184.909847" id="Fill-118" fill="#513878"></path>
                <path d="M157.357128,187.170847 C161.580128,186.525847 168.158128,187.117847 170.670128,191.159847 C171.009128,191.705847 171.875128,191.203847 171.534128,190.654847 C168.744128,186.167847 161.810128,185.485847 157.091128,186.206847 C156.457128,186.303847 156.726128,187.266847 157.357128,187.170847" id="Fill-119" fill="#513878"></path>
                <path d="M181.174128,103.763847 C178.906128,107.618847 176.937128,111.631847 175.329128,115.806847 C173.997128,119.265847 171.973128,123.623847 172.482128,127.404847 C172.917128,130.639847 175.247128,133.152847 177.739128,135.047847 C181.314128,137.768847 185.111128,140.031847 188.487128,143.036847 C188.966128,143.463847 189.676128,142.758847 189.194128,142.329847 C186.633128,140.049847 183.919128,138.023847 181.061128,136.130847 C177.725128,133.920847 173.605128,131.123847 173.413128,126.671847 C173.252128,122.953847 175.263128,118.643847 176.616128,115.248847 C178.131128,111.446847 179.963128,107.793847 182.037128,104.267847 C182.364128,103.711847 181.500128,103.208847 181.174128,103.763847" id="Fill-120" fill="#513878"></path>
                <path d="M216.058128,105.893847 C217.994128,108.760847 219.773128,111.721847 221.472128,114.734847 C223.234128,117.858847 225.903128,121.445847 226.193128,125.098847 C226.726128,131.793847 220.847128,137.010847 218.185128,142.635847 C217.912128,143.214847 218.773128,143.722847 219.049128,143.140847 C221.810128,137.304847 227.686128,132.059847 227.193128,125.098847 C226.956128,121.740847 224.842128,118.734847 223.256128,115.876847 C221.272128,112.301847 219.211128,108.777847 216.921128,105.388847 C216.563128,104.858847 215.696128,105.358847 216.058128,105.893847" id="Fill-121" fill="#513878"></path>
                <path d="M184.720128,139.633847 C183.075128,142.908847 180.888128,146.280847 180.101128,149.899847 C179.360128,153.305847 179.959128,156.871847 181.090128,160.120847 C183.699128,167.611847 187.872128,174.742847 191.366128,181.851847 C191.649128,182.429847 192.512128,181.923847 192.229128,181.347847 C189.018128,174.813847 185.449128,168.320847 182.708128,161.574847 C181.255128,157.998847 180.238128,154.023847 181.065128,150.164847 C181.817128,146.656847 183.984128,143.321847 185.583128,140.138847 C185.872128,139.564847 185.009128,139.057847 184.720128,139.633847" id="Fill-122" fill="#513878"></path>
                <path d="M220.518128,139.693847 C222.191128,142.989847 223.598128,146.453847 224.480128,150.050847 C225.515128,154.272847 224.286128,157.835847 223.250128,161.893847 C221.463128,168.901847 219.989128,176.042847 216.804128,182.587847 C216.523128,183.163847 217.385128,183.671847 217.667128,183.092847 C221.144128,175.949847 222.619128,168.138847 224.642128,160.514847 C225.598128,156.911847 226.401128,153.908847 225.542128,150.201847 C224.656128,146.374847 223.156128,142.684847 221.382128,139.189847 C221.090128,138.615847 220.227128,139.120847 220.518128,139.693847" id="Fill-123" fill="#513878"></path>
                <path d="M233.176128,124.018847 C234.826128,130.524847 236.464128,137.149847 236.316128,143.911847 C236.178128,150.264847 234.029128,156.331847 233.527128,162.643847 C233.002128,169.243847 233.485128,175.660847 230.502128,181.803847 C229.306128,184.265847 227.581128,186.439847 226.476128,188.944847 C225.405128,191.372847 225.818128,194.800847 223.898128,196.755847 C223.447128,197.215847 224.153128,197.922847 224.605128,197.462847 C226.344128,195.691847 226.170128,193.388847 226.761128,191.124847 C227.569128,188.030847 229.746128,185.515847 231.166128,182.702847 C234.109128,176.873847 234.131128,170.837847 234.419128,164.471847 C234.728128,157.676847 237.079128,151.177847 237.306128,144.381847 C237.540128,137.375847 235.850128,130.491847 234.140128,123.752847 C233.982128,123.129847 233.017128,123.393847 233.176128,124.018847" id="Fill-124" fill="#513878"></path>
                <path d="M234.374128,183.498847 C236.647128,183.334847 238.807128,183.756847 240.836128,184.796847 C241.408128,185.089847 241.914128,184.227847 241.341128,183.933847 C239.162128,182.816847 236.818128,182.321847 234.374128,182.498847 C233.736128,182.544847 233.731128,183.545847 234.374128,183.498847" id="Fill-125" fill="#513878"></path>
                <path d="M239.498128,181.086847 C240.495128,181.339847 241.458128,181.675847 242.390128,182.112847 C242.969128,182.383847 243.477128,181.521847 242.894128,181.248847 C241.885128,180.775847 240.845128,180.396847 239.764128,180.121847 C239.140128,179.963847 238.874128,180.927847 239.498128,181.086847" id="Fill-126" fill="#513878"></path>
                <path d="M166.347128,222.986847 C170.864128,222.849847 175.265128,222.169847 179.613128,220.931847 C180.230128,220.755847 179.968128,219.789847 179.347128,219.966847 C175.091128,221.179847 170.771128,221.852847 166.347128,221.986847 C165.705128,222.005847 165.702128,223.005847 166.347128,222.986847" id="Fill-127" fill="#513878"></path>
                <path d="M187.118128,102.858847 C187.909128,108.202847 189.541128,113.368847 192.062128,118.153847 C193.916128,121.672847 196.690128,127.283847 201.288128,127.618847 C205.050128,127.892847 206.605128,122.480847 207.622128,119.735847 C209.562128,114.501847 210.340128,108.942847 210.071128,103.376847 C210.040128,102.736847 209.040128,102.732847 209.071128,103.376847 C209.279128,107.692847 208.870128,111.986847 207.724128,116.159847 C207.121128,118.353847 206.333128,120.498847 205.358128,122.554847 C204.938128,123.440847 204.529128,124.438847 203.893128,125.198847 C202.187128,127.238847 199.787128,126.599847 198.057128,125.133847 C195.150128,122.669847 193.122128,118.342847 191.599128,114.922847 C189.849128,110.990847 188.712128,106.844847 188.083128,102.592847 C187.989128,101.958847 187.025128,102.227847 187.118128,102.858847" id="Fill-128" fill="#FFFFFE"></path>
                <path d="M188.324128,109.349847 C188.101128,115.628847 188.033128,121.972847 190.590128,127.845847 C192.519128,132.276847 196.098128,136.379847 201.199128,136.813847 C205.900128,137.213847 209.507128,133.805847 210.963128,129.571847 C212.875128,124.009847 211.816128,117.118847 209.790128,111.736847 C209.565128,111.140847 208.598128,111.398847 208.826128,112.002847 C210.607128,116.735847 211.483128,122.319847 210.517128,127.344847 C209.529128,132.478847 205.449128,136.973847 199.838128,135.573847 C189.085128,132.890847 189.018128,117.946847 189.324128,109.349847 C189.347128,108.706847 188.347128,108.707847 188.324128,109.349847" id="Fill-129" fill="#FFFFFE"></path>
                <path d="M201.338128,136.566847 C201.135128,137.857847 200.712128,139.310847 201.163128,140.587847 C201.419128,141.313847 202.166128,142.627847 203.028128,142.764847 C203.967128,142.914847 204.110128,141.805847 204.074128,141.122847 C203.981128,139.391847 202.694128,138.022847 202.526128,136.310847 C202.463128,135.676847 201.463128,135.669847 201.526128,136.310847 C201.696128,138.036847 202.917128,139.419847 203.074128,141.122847 C203.153128,141.979847 202.825128,141.492847 202.477128,140.975847 C202.176128,140.529847 201.996128,140.058847 201.960128,139.513847 C201.902128,138.647847 202.168128,137.687847 202.302128,136.832847 C202.402128,136.202847 201.438128,135.931847 201.338128,136.566847" id="Fill-130" fill="#FFFFFE"></path>
                <path d="M241.148128,214.883847 C241.057128,212.318847 240.084128,209.385847 238.049128,207.725847 C237.555128,207.322847 236.843128,208.025847 237.342128,208.432847 C239.173128,209.925847 240.066128,212.565847 240.148128,214.883847 C240.170128,215.525847 241.170128,215.528847 241.148128,214.883847" id="Fill-131" fill="#E67C62"></path>
                <path d="M242.290128,208.216847 C241.827128,207.512847 241.285128,206.879847 240.650128,206.324847 C240.167128,205.903847 239.457128,206.607847 239.943128,207.031847 C240.514128,207.530847 241.009128,208.086847 241.426128,208.721847 C241.778128,209.256847 242.644128,208.756847 242.290128,208.216847" id="Fill-132" fill="#E67C62"></path>
                <path d="M235.960128,211.448847 C235.480128,210.863847 234.935128,210.362847 234.327128,209.911847 C233.810128,209.528847 233.310128,210.396847 233.822128,210.775847 C234.359128,211.173847 234.830128,211.640847 235.253128,212.156847 C235.661128,212.654847 236.365128,211.943847 235.960128,211.448847" id="Fill-133" fill="#E67C62"></path>
                <path d="M216.016128,285.146847 C215.119128,283.463847 214.494128,281.699847 214.118128,279.831847 C213.991128,279.201847 213.026128,279.468847 213.153128,280.097847 C213.546128,282.047847 214.217128,283.895847 215.152128,285.650847 C215.455128,286.218847 216.319128,285.714847 216.016128,285.146847" id="Fill-134" fill="#C95D48"></path>
                <path d="M220.938128,283.872847 C220.319128,282.439847 219.831128,280.961847 219.456128,279.446847 C219.301128,278.822847 218.336128,279.086847 218.491128,279.712847 C218.888128,281.315847 219.420128,282.861847 220.074128,284.377847 C220.329128,284.966847 221.190128,284.457847 220.938128,283.872847" id="Fill-135" fill="#C95D48"></path>
                <path d="M209.583128,279.110847 C209.545128,278.699847 209.506128,278.289847 209.467128,277.878847 C209.408128,277.243847 208.407128,277.236847 208.467128,277.878847 C208.506128,278.289847 208.545128,278.699847 208.583128,279.110847 C208.643128,279.745847 209.644128,279.751847 209.583128,279.110847" id="Fill-136" fill="#C95D48"></path>
                <path d="M178.021128,65.9488467 C178.541128,67.4088467 179.113128,68.8478467 179.732128,70.2678467 C179.989128,70.8568467 180.851128,70.3478467 180.596128,69.7638467 C180.011128,68.4218467 179.476128,67.0618467 178.985128,65.6828467 C178.771128,65.0808467 177.805128,65.3408467 178.021128,65.9488467" id="Fill-137" fill="#C95D48"></path>
                <path d="M192.781128,230.257847 C198.257128,230.762847 203.702128,230.595847 209.139128,229.784847 C209.773128,229.690847 209.504128,228.726847 208.873128,228.820847 C203.527128,229.617847 198.163128,229.753847 192.781128,229.257847 C192.141128,229.198847 192.145128,230.199847 192.781128,230.257847" id="Fill-138" fill="#7A6D9A"></path>
                <path d="M198.249128,221.720847 C199.362128,232.893847 200.056128,244.099847 200.329128,255.323847 C200.345128,255.966847 201.345128,255.968847 201.329128,255.323847 C201.056128,244.099847 200.362128,232.893847 199.249128,221.720847 C199.186128,221.086847 198.185128,221.079847 198.249128,221.720847" id="Fill-139" fill="#7A6D9A"></path>
                <path d="M205.984128,224.360847 C206.210128,228.617847 206.620128,232.914847 206.407128,237.178847 C206.375128,237.821847 207.375128,237.820847 207.407128,237.178847 C207.620128,232.914847 207.210128,228.617847 206.984128,224.360847 C206.950128,223.719847 205.949128,223.715847 205.984128,224.360847" id="Fill-140" fill="#7A6D9A"></path>
                <path d="M160.888128,243.227847 C164.189128,243.132847 167.383128,242.281847 170.236128,240.598847 C170.790128,240.271847 170.288128,239.407847 169.732128,239.735847 C167.023128,241.332847 164.023128,242.137847 160.888128,242.227847 C160.246128,242.245847 160.243128,243.245847 160.888128,243.227847" id="Fill-141" fill="#7A6D9A"></path>
                <path d="M161.218128,238.126847 C160.504128,241.496847 159.790128,244.867847 159.076128,248.238847 C158.943128,248.865847 159.907128,249.134847 160.040128,248.504847 C160.754128,245.133847 161.468128,241.762847 162.182128,238.392847 C162.315128,237.764847 161.351128,237.496847 161.218128,238.126847" id="Fill-142" fill="#7A6D9A"></path>
                <path d="M240.208128,242.417847 C242.736128,247.813847 245.017128,253.156847 245.963128,259.074847 C246.976128,265.417847 247.356128,271.857847 247.589128,278.269847 C248.026128,290.339847 247.883128,302.436847 249.537128,314.427847 C249.625128,315.061847 250.589128,314.791847 250.502128,314.161847 C248.726128,301.292847 249.067128,288.291847 248.469128,275.345847 C248.201128,269.526847 247.774128,263.676847 246.783128,257.930847 C245.806128,252.263847 243.494128,247.084847 241.071128,241.913847 C240.799128,241.330847 239.936128,241.837847 240.208128,242.417847" id="Fill-143" fill="#7A6D9A"></path>
                <path d="M180.809128,250.414847 C185.035128,251.385847 189.592128,252.018847 193.618128,253.652847 C197.021128,255.033847 200.050128,256.392847 203.764128,256.760847 C204.403128,256.823847 204.399128,255.823847 203.764128,255.760847 C199.697128,255.357847 196.481128,253.499847 192.693128,252.228847 C188.949128,250.973847 184.920128,250.333847 181.074128,249.449847 C180.448128,249.305847 180.181128,250.269847 180.809128,250.414847" id="Fill-144" fill="#7A6D9A"></path>
                <path d="M185.105128,257.347847 C189.251128,256.996847 193.369128,256.470847 197.471128,255.771847 C198.104128,255.663847 197.836128,254.699847 197.205128,254.806847 C193.192128,255.491847 189.161128,256.003847 185.105128,256.347847 C184.468128,256.401847 184.463128,257.402847 185.105128,257.347847" id="Fill-145" fill="#7A6D9A"></path>
                <path d="M204.798128,226.038847 C204.798128,227.139847 204.011128,228.032847 203.041128,228.032847 C202.071128,228.032847 201.285128,227.139847 201.285128,226.038847 C201.285128,224.937847 202.071128,224.044847 203.041128,224.044847 C204.011128,224.044847 204.798128,224.937847 204.798128,226.038847 Z" id="Stroke-146" stroke="#7A6D9A"></path>
                <path d="M185.373128,58.0208467 C185.373128,58.0208467 187.422128,56.1188467 189.568128,56.0698467 C191.714128,56.0208467 192.396128,56.9968467 192.933128,56.4598467 C193.469128,55.9238467 193.274128,53.8268467 189.568128,53.8758467 C185.861128,53.9238467 184.203128,57.0938467 185.373128,58.0208467" id="Fill-147" fill="#202C4F"></path>
                <path d="M191.675128,63.2128467 C191.699128,64.3248467 191.245128,65.2378467 190.660128,65.2508467 C190.076128,65.2638467 189.582128,64.3718467 189.557128,63.2588467 C189.533128,62.1458467 189.987128,61.2338467 190.572128,61.2208467 C191.156128,61.2078467 191.650128,62.0998467 191.675128,63.2128467" id="Fill-148" fill="#262318"></path>
                <path d="M199.135128,63.8698467 C199.135128,63.8698467 201.268128,68.5418467 201.288128,69.7188467 C201.309128,70.8958467 199.013128,71.4358467 199.013128,71.4358467 M204.112128,77.5928467 C204.112128,77.5928467 201.012128,80.3198467 195.450128,78.3238467" id="Stroke-149" stroke="#C95D48" stroke-linecap="round"></path>
                <path d="M210.159128,57.4988467 C210.159128,57.4988467 208.110128,55.5968467 205.964128,55.5478467 C203.819128,55.4988467 203.136128,56.4748467 202.599128,55.9378467 C202.063128,55.4018467 202.258128,53.3048467 205.964128,53.3528467 C209.671128,53.4018467 211.329128,56.5718467 210.159128,57.4988467" id="Fill-150" fill="#202C4F"></path>
                <path d="M204.292128,62.5708467 C204.292128,63.6258467 204.742128,64.4808467 205.296128,64.4808467 C205.850128,64.4808467 206.299128,63.6258467 206.299128,62.5708467 C206.299128,61.5158467 205.850128,60.6608467 205.296128,60.6608467 C204.742128,60.6608467 204.292128,61.5158467 204.292128,62.5708467" id="Fill-151" fill="#262318"></path>
                <path d="M179.174128,73.1578467 C179.174128,73.1578467 175.165128,76.6148467 176.568128,78.5188467 C177.971128,80.4238467 182.832128,80.5738467 183.433128,78.8698467 C183.846128,77.6998467 181.529128,70.9028467 179.174128,73.1578467" id="Fill-152" fill="#E7EDB1"></path>
                <path d="M205.224128,252.947847 C206.795128,255.472847 210.106128,256.180847 212.870128,256.523847 C216.407128,256.963847 219.892128,256.312847 222.757128,254.120847 C223.261128,253.735847 222.763128,252.866847 222.252128,253.257847 C220.014128,254.969847 217.375128,255.742847 214.563128,255.660847 C211.806128,255.578847 207.662128,254.973847 206.087128,252.442847 C205.748128,251.897847 204.882128,252.398847 205.224128,252.947847" id="Fill-153" fill="#FFEA89"></path>
                <path d="M206.104128,250.392847 C210.424128,254.065847 217.561128,254.495847 222.919128,253.813847 C223.549128,253.733847 223.557128,252.732847 222.919128,252.813847 C217.843128,253.460847 210.921128,253.180847 206.811128,249.685847 C206.323128,249.270847 205.612128,249.974847 206.104128,250.392847" id="Fill-154" fill="#FFEA89"></path>
                <path d="M207.268128,247.209847 C210.772128,251.459847 217.696128,252.589847 222.913128,251.919847 C223.543128,251.838847 223.551128,250.837847 222.913128,250.919847 C217.933128,251.558847 211.312128,250.549847 207.975128,246.502847 C207.566128,246.005847 206.862128,246.716847 207.268128,247.209847" id="Fill-155" fill="#FFEA89"></path>
                <path d="M75.7201279,238.570847 C81.5731279,230.572847 103.812128,225.890847 103.812128,225.890847 C103.812128,225.890847 134.390128,229.000847 142.633128,235.254847 C159.605128,248.129847 201.341128,308.314847 186.136128,329.282847 L73.7701279,329.282847 C57.3571279,313.625847 69.8681279,246.568847 75.7201279,238.570847" id="Fill-156" fill="#384D8F"></path>
                <path d="M102.392128,227.591847 C102.392128,227.591847 127.027128,302.751847 128.002128,323.040847 L144.194128,329.477847 L146.361128,321.124847 C146.361128,321.124847 140.487128,244.910847 124.149128,230.815847 L102.392128,227.591847" id="Fill-157" fill="#FCF8C6"></path>
                <path d="M127.124128,152.247847 C127.124128,152.247847 141.024128,151.515847 146.291128,169.073847 C151.558128,186.630847 147.022128,197.018847 150.973128,201.261847 C154.923128,205.504847 158.142128,205.065847 157.118128,207.991847 C156.093128,210.917847 150.534128,211.649847 149.948128,213.112847 C149.363128,214.575847 141.170128,217.940847 134.732128,211.649847 C128.295128,205.358847 127.124128,152.247847 127.124128,152.247847" id="Fill-158" fill="#A93D2B"></path>
                <path d="M135.610128,215.020847 C131.806128,225.250847 123.027128,221.891847 123.027128,221.891847 C123.027128,221.891847 121.927128,225.180847 122.489128,227.965847 C122.688128,228.995847 123.121128,229.955847 123.905128,230.669847 C126.831128,233.303847 129.172128,254.816847 129.172128,254.816847 C129.172128,254.816847 106.208128,233.443847 102.392128,227.591847 C102.392128,227.591847 106.641128,216.038847 105.903128,209.753847 C105.178128,203.456847 98.0141279,196.725847 101.221128,182.679847 C104.452128,168.634847 123.613128,156.496847 133.410128,164.970847 C133.410128,164.970847 137.951128,169.219847 138.981128,179.753847 C139.999128,190.288847 139.414128,204.766847 135.610128,215.020847" id="Fill-159" fill="#F4BB86"></path>
                <path d="M131.806128,156.344847 C131.806128,156.344847 125.076128,143.615847 109.421128,146.248847 C93.7651279,148.882847 78.8421279,170.389847 79.7201279,191.897847 C80.5971279,213.405847 97.5691279,215.746847 103.714128,215.746847 C109.859128,215.746847 110.445128,211.941847 112.493128,210.039847 C114.541128,208.137847 106.494128,204.480847 106.202128,200.090847 C105.909128,195.701847 107.665128,191.604847 106.202128,184.143847 C104.739128,176.681847 116.882128,172.584847 122.150128,168.926847 C127.417128,165.269847 131.367128,160.879847 131.806128,156.344847" id="Fill-160" fill="#A93D2B"></path>
                <path d="M122.489128,227.965847 C118.779128,226.853847 108.677128,222.979847 110.351128,214.189847 C110.351128,214.189847 118.544128,220.334847 123.027128,221.891847 C123.027128,221.891847 121.927128,225.180847 122.489128,227.965847" id="Fill-161" fill="#E8836C"></path>
                <path d="M125.807128,189.666847 C125.807128,195.827847 122.368128,200.822847 118.126128,200.822847 C113.884128,200.822847 110.445128,195.827847 110.445128,189.666847 C110.445128,183.504847 113.884128,178.510847 118.126128,178.510847 C122.368128,178.510847 125.807128,183.504847 125.807128,189.666847 Z M143.341128,188.459847 C143.341128,194.337847 140.273128,199.103847 136.488128,199.103847 C132.703128,199.103847 129.635128,194.337847 129.635128,188.459847 C129.635128,182.580847 132.703128,177.815847 136.488128,177.815847 C140.273128,177.815847 143.341128,182.580847 143.341128,188.459847 Z" id="Stroke-162" stroke="#692A22"></path>
                <path d="M112.932128,178.241847 C112.932128,178.241847 114.980128,176.339847 117.126128,176.291847 C119.272128,176.242847 119.955128,177.217847 120.491128,176.681847 C121.028128,176.144847 120.833128,174.047847 117.126128,174.096847 C113.420128,174.145847 111.762128,177.315847 112.932128,178.241847" id="Fill-163" fill="#A93D2B"></path>
                <path d="M137.565128,176.555847 C137.565128,176.555847 135.451128,175.144847 133.733128,175.546847 C132.014128,175.948847 131.719128,177.034847 131.156128,176.628847 C130.593128,176.221847 130.214128,174.153847 133.174128,173.424847 C136.134128,172.695847 138.259128,175.413847 137.565128,176.555847" id="Fill-164" fill="#A93D2B"></path>
                <path d="M118.718128,189.308847 C118.718128,190.899847 118.041128,192.189847 117.205128,192.189847 C116.369128,192.189847 115.691128,190.899847 115.691128,189.308847 C115.691128,187.717847 116.369128,186.427847 117.205128,186.427847 C118.041128,186.427847 118.718128,187.717847 118.718128,189.308847" id="Fill-165" fill="#A93D2B"></path>
                <path d="M134.842128,188.234847 C134.842128,189.671847 134.317128,190.836847 133.668128,190.836847 C133.020128,190.836847 132.495128,189.671847 132.495128,188.234847 C132.495128,186.797847 133.020128,185.632847 133.668128,185.632847 C134.317128,185.632847 134.842128,186.797847 134.842128,188.234847" id="Fill-166" fill="#A93D2B"></path>
                <path d="M128.441128,190.580847 C128.441128,190.580847 133.562128,199.139847 133.854128,201.407847 C134.147128,203.675847 129.831128,205.211847 129.831128,205.211847 M131.367128,208.796847 C131.367128,208.796847 127.782128,210.844847 122.735128,207.772847 M126.027128,188.605847 L129.246128,188.532847" id="Stroke-167" stroke="#AA3C2C" stroke-linecap="round"></path>
                <path d="M73.7701279,329.282847 C73.7701279,329.282847 99.1301279,301.581847 158.825128,329.282847 C158.825128,329.282847 97.5691279,336.890847 73.7701279,329.282847" id="Fill-168" fill="#F4BB86"></path>
                <path d="M102.451128,353.231847 C105.372128,352.728847 116.550128,350.668847 121.222128,347.859847 L186.136128,329.282847 C186.136128,329.282847 180.235128,319.772847 171.017128,316.114847 C161.800128,312.457847 125.222128,332.062847 120.540128,334.696847 C120.540128,334.696847 99.6181279,334.403847 94.4241279,336.817847 C89.2301279,339.231847 83.0851279,345.230847 82.2071279,349.692847 C81.3291279,354.155847 87.2551279,347.717847 87.9131279,347.132847 C88.5711279,346.547847 89.9611279,345.230847 89.9611279,345.230847 C89.9611279,345.230847 82.5001279,354.155847 83.0851279,357.301847 C83.6701279,360.446847 89.0101279,352.838847 90.9851279,351.229847 C90.9851279,351.229847 86.5961279,357.959847 88.4981279,358.837847 C90.1871279,359.616847 94.0601279,354.523847 94.9091279,353.369847 C94.9071279,353.396847 94.9061279,353.422847 94.9041279,353.449847 C94.2271279,354.685847 91.9121279,359.220847 94.0581279,359.788847 C96.3711279,360.400847 101.018128,354.316847 101.659128,353.457847 L102.451128,353.231847" id="Fill-169" fill="#EFA787"></path>
                <path d="M98.3551279,229.658847 C97.5651279,233.676847 96.7551279,237.692847 96.1171279,241.738847 C95.5581279,245.284847 94.5101279,249.413847 95.5191279,252.935847 C97.5231279,259.928847 106.795128,261.567847 112.836128,263.090847 C113.460128,263.248847 113.726128,262.284847 113.102128,262.126847 C106.654128,260.500847 96.3481279,258.671847 96.1171279,250.289847 C96.0231279,246.865847 96.8531279,243.265847 97.4291279,239.900847 C98.0001279,236.564847 98.6671279,233.245847 99.3201279,229.924847 C99.4431279,229.296847 98.4801279,229.027847 98.3551279,229.658847" id="Fill-170" fill="#FFFFFE"></path>
                <path d="M103.604128,260.227847 C103.300128,264.844847 103.084128,269.475847 103.064128,274.104847 C103.048128,278.042847 103.683128,281.284847 105.952128,284.565847 C108.131128,287.715847 110.933128,290.455847 113.509128,293.273847 C116.656128,296.716847 119.802128,300.159847 122.948128,303.601847 C123.383128,304.077847 124.089128,303.369847 123.655128,302.894847 C118.278128,297.011847 112.328128,291.334847 107.501128,284.987847 C104.702128,281.307847 104.014128,277.665847 104.076128,273.112847 C104.135128,268.812847 104.321128,264.517847 104.604128,260.227847 C104.647128,259.584847 103.647128,259.587847 103.604128,260.227847" id="Fill-171" fill="#FFFFFE"></path>
                <path d="M128.624128,231.901847 C132.776128,237.109847 137.811128,241.533847 141.747128,246.924847 C143.691128,249.587847 145.488128,252.631847 145.256128,256.054847 C145.023128,259.491847 142.927128,262.494847 141.015128,265.226847 C140.645128,265.755847 141.512128,266.255847 141.878128,265.731847 C143.757128,263.047847 145.710128,260.167847 146.170128,256.844847 C146.589128,253.815847 145.547128,250.955847 143.969128,248.411847 C139.977128,241.974847 134.021128,237.076847 129.331128,231.193847 C128.930128,230.690847 128.226128,231.402847 128.624128,231.901847" id="Fill-172" fill="#FFFFFE"></path>
                <path d="M143.455128,262.896847 C145.809128,266.386847 147.680128,270.373847 149.047128,274.353847 C150.690128,279.139847 149.785128,283.150847 147.917128,287.691847 C147.672128,288.286847 148.639128,288.545847 148.881128,287.957847 C150.696128,283.544847 151.716128,279.559847 150.279128,274.897847 C148.937128,270.547847 146.858128,266.156847 144.318128,262.391847 C143.960128,261.860847 143.093128,262.360847 143.455128,262.896847" id="Fill-173" fill="#FFFFFE"></path>
                <path d="M87.4081279,247.683847 C90.7481279,258.081847 93.2831279,268.770847 95.9521279,279.356847 C98.6721279,290.144847 101.148128,300.992847 103.399128,311.887847 C103.530128,312.517847 104.494128,312.250847 104.364128,311.621847 C102.112128,300.726847 99.6361279,289.878847 96.9161279,279.090847 C94.2471279,268.505847 91.7121279,257.815847 88.3721279,247.418847 C88.1761279,246.807847 87.2101279,247.068847 87.4081279,247.683847" id="Fill-174" fill="#FFFFFE"></path>
                <path d="M154.899128,284.346847 C157.018128,292.341847 158.866128,300.401847 160.442128,308.521847 C160.564128,309.152847 161.528128,308.884847 161.406128,308.255847 C159.831128,300.135847 157.983128,292.075847 155.863128,284.081847 C155.699128,283.459847 154.734128,283.723847 154.899128,284.346847" id="Fill-175" fill="#FFFFFE"></path>
                <path d="M158.933128,316.992847 C159.643128,310.027847 167.158128,306.502847 173.041128,310.202847 C173.587128,310.546847 174.089128,309.681847 173.545128,309.339847 C166.963128,305.199847 158.716128,309.304847 157.933128,316.992847 C157.868128,317.632847 158.869128,317.627847 158.933128,316.992847" id="Fill-176" fill="#FFFFFE"></path>
                <path d="M119.793128,334.919847 C122.600128,337.400847 124.871128,343.619847 122.050128,346.897847 C121.632128,347.382847 122.337128,348.093847 122.757128,347.604847 C125.944128,343.901847 123.808128,337.136847 120.501128,334.211847 C120.020128,333.787847 119.310128,334.491847 119.793128,334.919847" id="Fill-177" fill="#FFFFFE"></path>
                <path d="M121.459128,333.937847 C122.972128,335.107847 124.231128,336.517847 125.045128,338.264847 C125.591128,339.437847 125.927128,340.739847 126.027128,342.028847 C126.117128,343.194847 126.273128,346.101847 125.089128,346.753847 C124.525128,347.063847 125.029128,347.927847 125.593128,347.616847 C127.560128,346.534847 127.167128,342.311847 126.821128,340.548847 C126.236128,337.575847 124.545128,335.071847 122.166128,333.230847 C121.664128,332.841847 120.951128,333.544847 121.459128,333.937847" id="Fill-178" fill="#FFFFFE"></path>
                <path d="M124.464128,292.677847 C129.112128,289.640847 134.097128,287.310847 139.412128,285.700847 C140.027128,285.514847 139.765128,284.549847 139.147128,284.736847 C133.752128,286.370847 128.679128,288.730847 123.959128,291.813847 C123.423128,292.164847 123.923128,293.030847 124.464128,292.677847" id="Fill-179" fill="#BAADA2"></path>
                <path d="M140.903128,286.950847 C139.772128,286.752847 138.299128,287.640847 137.304128,288.072847 C136.159128,288.569847 134.501128,289.076847 133.617128,290.008847 C133.174128,290.475847 133.880128,291.184847 134.324128,290.716847 C135.015128,289.987847 136.378128,289.574847 137.271128,289.173847 C137.956128,288.865847 138.648128,288.569847 139.353128,288.310847 C139.665128,288.196847 140.295128,287.855847 140.637128,287.915847 C141.266128,288.025847 141.537128,287.061847 140.903128,286.950847" id="Fill-180" fill="#BAADA2"></path>
                <path d="M150.127128,257.819847 C150.969128,260.325847 152.554128,262.550847 153.145128,265.137847 C153.855128,268.251847 153.476128,271.450847 153.099128,274.581847 C153.022128,275.218847 154.022128,275.213847 154.099128,274.581847 C154.451128,271.654847 154.790128,268.690847 154.290128,265.760847 C153.782128,262.790847 152.037128,260.369847 151.091128,257.553847 C150.888128,256.947847 149.921128,257.207847 150.127128,257.819847" id="Fill-181" fill="#FFFFFE"></path>
                <path d="M101.724128,228.052847 C105.561128,232.391847 110.845128,235.833847 116.619128,236.855847 C120.498128,237.542847 126.094128,235.544847 124.655128,230.621847 C124.475128,230.004847 123.509128,230.267847 123.691128,230.887847 C124.689128,234.302847 121.245128,236.101847 118.384128,236.056847 C116.147128,236.020847 113.729128,235.141847 111.708128,234.244847 C108.128128,232.654847 105.019128,230.272847 102.431128,227.345847 C102.004128,226.862847 101.299128,227.571847 101.724128,228.052847" id="Fill-182" fill="#E36531"></path>
                <path d="M120.412128,236.953847 C120.700128,237.207847 120.964128,237.480847 121.179128,237.799847 C121.268128,237.931847 121.350128,238.068847 121.425128,238.209847 C121.475128,238.302847 121.522128,238.398847 121.565128,238.495847 C121.569128,238.684847 121.657128,238.738847 121.830128,238.657847 C122.054128,238.695847 122.090128,238.635847 121.937128,238.477847 C121.879128,238.370847 121.822128,238.261847 121.768128,238.152847 C121.678128,237.972847 121.594128,237.790847 121.517128,237.604847 C121.353128,237.209847 121.224128,236.801847 121.111128,236.389847 C120.943128,235.768847 119.978128,236.032847 120.147128,236.655847 C120.351128,237.403847 120.628128,238.132847 120.988128,238.820847 C121.246128,239.314847 121.688128,239.873847 122.291128,239.447847 C123.397128,238.665847 121.752128,236.803847 121.119128,236.246847 C120.637128,235.822847 119.927128,236.527847 120.412128,236.953847" id="Fill-183" fill="#E36531"></path>
                <path d="M90.5851279,345.489847 C91.6411279,344.418847 92.7461279,343.402847 93.9021279,342.441847 C94.3971279,342.029847 93.6861279,341.325847 93.1951279,341.733847 C92.0391279,342.695847 90.9331279,343.711847 89.8781279,344.781847 C89.4261279,345.240847 90.1331279,345.948847 90.5851279,345.489847" id="Fill-184" fill="#D06452"></path>
                <path d="M91.4371279,351.033847 C92.1851279,350.174847 92.9411279,349.321847 93.7081279,348.479847 C94.3761279,347.744847 95.0171279,347.001847 95.9181279,346.549847 C96.4931279,346.260847 95.9871279,345.397847 95.4131279,345.685847 C94.5461279,346.121847 93.8921279,346.797847 93.2431279,347.506847 C92.3931279,348.434847 91.5561279,349.376847 90.7301279,350.326847 C90.3091279,350.810847 91.0131279,351.520847 91.4371279,351.033847" id="Fill-185" fill="#D06452"></path>
                <path d="M95.3741279,353.494847 C96.5311279,352.116847 97.7841279,350.832847 99.1331279,349.641847 C99.6161279,349.215847 98.9071279,348.510847 98.4261279,348.934847 C97.0771279,350.125847 95.8241279,351.409847 94.6671279,352.787847 C94.2561279,353.277847 94.9601279,353.988847 95.3741279,353.494847" id="Fill-186" fill="#D06452"></path>
            </g>
        </g>
    </g>
</svg>